# This file uses centimeters as units for non-parametric coordinates.

v 1.708594 2.943059 -0.499000
v 1.800883 2.998044 -0.499000
v 1.800883 2.998044 0.501000
v 1.708594 2.943059 0.501000
v 1.199524 3.514927 -0.499000
v 1.393870 3.620405 -0.499000
v 1.576943 2.872286 -0.499000
v 1.576943 2.872286 0.501000
v 1.199524 3.514927 0.501000
v 1.393870 3.620405 0.501000
v 0.997198 3.425708 -0.499000
v 0.997198 3.425708 0.501000
v 1.056178 2.659758 -0.499000
v 0.946003 2.627175 -0.499000
v 1.165102 2.695660 -0.499000
v 1.304933 2.748466 -0.499000
v 1.442302 2.807379 -0.499000
v 1.442302 2.807379 0.501000
v 1.304933 2.748466 0.501000
v 1.165102 2.695660 0.501000
v 1.056178 2.659758 0.501000
v 0.946003 2.627175 0.501000
v 0.738574 3.314588 0.501000
v 0.835282 2.595863 0.501000
v 0.738574 3.314588 -0.499000
v 0.835282 2.595863 -0.499000
v 0.745821 2.581758 0.501000
v 0.745821 2.581758 -0.499000
v 0.734244 3.218019 0.501000
v 0.734593 3.087471 0.501000
v 0.734790 2.957075 0.501000
v 0.734879 2.826787 0.501000
v 0.734902 2.696565 0.501000
v 0.734244 3.218019 -0.499000
v 0.734902 2.696565 -0.499000
v 0.734879 2.826787 -0.499000
v 0.734790 2.957075 -0.499000
v 0.734593 3.087471 -0.499000
vt 0.608070 0.049318
vt 0.608070 0.049318
vt 0.621032 0.051294
vt 0.621032 0.051294
vt 0.606488 0.065406
vt 0.606488 0.065406
vt 0.637075 0.055682
vt 0.653039 0.060248
vt 0.668822 0.065280
vt 0.689082 0.072680
vt 0.708986 0.080936
vt 0.728495 0.090032
vt 0.747571 0.099950
vt 0.760943 0.107655
vt 0.701969 0.194872
vt 0.673809 0.180090
vt 0.644493 0.167587
vt 0.607020 0.152015
vt 0.606393 0.138482
vt 0.606443 0.120187
vt 0.606472 0.101914
vt 0.606485 0.083656
vt 0.637075 0.055682
vt 0.606485 0.083656
vt 0.606472 0.101914
vt 0.606443 0.120187
vt 0.606393 0.138482
vt 0.607020 0.152015
vt 0.644493 0.167587
vt 0.673809 0.180090
vt 0.701969 0.194872
vt 0.760943 0.107655
vt 0.747571 0.099950
vt 0.728495 0.090032
vt 0.708986 0.080936
vt 0.689082 0.072680
vt 0.668822 0.065280
vt 0.653039 0.060248
vn 0.489647 -0.871921 0.000000
vn 0.511834 -0.859084 0.000000
vn 0.511834 -0.859084 0.000000
vn 0.489647 -0.871921 0.000000
vn 0.000000 0.000000 -1.000000
vn 0.000000 0.000000 -1.000000
vn 0.000000 0.000000 -1.000000
vn 0.000000 0.000000 -1.000000
vn 0.000000 0.000000 -1.000000
vn 0.453984 -0.891010 0.000000
vn 0.453984 -0.891010 0.000000
vn 0.000000 0.000000 1.000000
vn -0.000000 0.000000 1.000000
vn 0.000000 0.000000 1.000000
vn -0.000000 0.000000 1.000000
vn -0.000000 0.000000 1.000000
vn 0.836918 0.547329 0.000000
vn 0.836918 0.547329 0.000000
vn 0.836918 0.547329 0.000000
vn 0.836918 0.547329 0.000000
vn -0.477005 0.878900 0.000000
vn -0.477005 0.878900 0.000000
vn -0.440612 0.897697 0.000000
vn -0.440612 0.897697 0.000000
vn -0.398602 0.917124 0.000000
vn -0.398602 0.917124 0.000000
vn 0.000000 0.000000 -1.000000
vn -0.000000 0.000000 -1.000000
vn 0.000000 0.000000 -1.000000
vn -0.000000 0.000000 -1.000000
vn 0.000000 0.000000 -1.000000
vn 0.000000 0.000000 -1.000000
vn 0.414299 -0.910141 0.000000
vn 0.414299 -0.910141 0.000000
vn 0.000000 0.000000 1.000000
vn 0.000000 0.000000 1.000000
vn -0.000000 0.000000 1.000000
vn 0.000000 0.000000 1.000000
vn 0.000000 0.000000 1.000000
vn -0.000000 0.000000 1.000000
vn -0.000000 0.000000 1.000000
vn -0.000000 0.000000 1.000000
vn -0.394763 0.918783 0.000000
vn -0.394763 0.918783 0.000000
vn -0.000000 0.000000 -1.000000
vn -0.000000 0.000000 -1.000000
vn 0.221254 -0.975216 0.000000
vn 0.277863 -0.960621 0.000000
vn 0.277863 -0.960621 0.000000
vn 0.221254 -0.975216 0.000000
vn 0.298340 -0.954460 0.000000
vn 0.298340 -0.954460 0.000000
vn 0.335890 -0.941901 0.000000
vn 0.335890 -0.941901 0.000000
vn 0.373811 -0.927505 0.000000
vn 0.373811 -0.927505 0.000000
vn 0.155733 -0.987799 0.000000
vn 0.155733 -0.987799 0.000000
vn -0.000002 0.000000 1.000000
vn -0.000002 0.000000 1.000000
vn -0.000002 0.000000 1.000000
vn -0.000002 0.000000 1.000000
vn -0.000002 0.000000 1.000000
vn -0.000002 0.000000 1.000000
vn -0.999847 0.017524 0.000000
vn -0.998996 0.044790 0.000000
vn -0.998996 0.044790 0.000000
vn -0.999847 0.017524 0.000000
vn -0.000000 0.000000 -1.000000
vn -0.000000 0.000000 -1.000000
vn -0.000000 0.000000 -1.000000
vn -0.000000 0.000000 -1.000000
vn -0.000000 0.000000 -1.000000
vn -0.000000 0.000000 -1.000000
vn -0.999004 -0.044611 0.000000
vn -0.995508 -0.094677 0.000000
vn -0.995508 -0.094677 0.000000
vn -0.999004 -0.044611 0.000000
vn -1.000000 -0.000430 0.000000
vn -1.000000 -0.000430 0.000000
vn -0.999999 -0.001096 0.000000
vn -0.999999 -0.001096 0.000000
vn -0.999998 -0.002092 0.000000
vn -0.999998 -0.002092 0.000000
s 1
f 1/33/1 2/32/2 3/14/3 4/13/4
s 2
f 2/32/5 1/33/6 5/30/7 6/31/8
f 5/30/7 1/33/6 7/34/9
s 1
f 7/34/10 1/33/1 4/13/4 8/12/11
s 3
f 8/12/12 4/13/13 9/16/14
f 9/16/14 4/13/13 3/14/15 10/15/16
s off
f 10/15/17 3/14/18 2/32/19 6/31/20
s 4
f 10/15/21 6/31/22 5/30/23 9/16/24
f 9/16/24 5/30/23 11/29/25 12/17/26
s 2
f 11/29/27 5/30/7 13/38/28 14/23/29
f 13/38/28 5/30/7 15/37/30
f 15/37/30 5/30/7 16/36/31
f 16/36/31 5/30/7 17/35/32
f 17/35/32 5/30/7 7/34/9
s 1
f 17/35/33 7/34/10 8/12/11 18/11/34
s 3
f 18/11/35 8/12/12 9/16/14
f 18/11/35 9/16/14 19/10/36
f 19/10/36 9/16/14 20/9/37
f 20/9/37 9/16/14 21/8/38
f 21/8/38 9/16/14 12/17/39 22/7/40
f 22/7/40 12/17/39 23/18/41 24/4/42
s 4
f 23/18/43 12/17/26 11/29/25 25/28/44
s 2
f 25/28/45 11/29/27 14/23/29 26/3/46
s 1
f 26/3/47 14/23/48 22/7/49 24/4/50
f 22/7/49 14/23/48 13/38/51 21/8/52
f 21/8/52 13/38/51 15/37/53 20/9/54
f 20/9/54 15/37/53 16/36/55 19/10/56
f 19/10/56 16/36/55 17/35/33 18/11/34
f 26/3/47 24/4/50 27/1/57 28/2/58
s 3
f 27/1/59 24/4/42 23/18/41 29/19/60 30/20/61 31/21/62 32/22/63 33/5/64
s 7
f 29/19/65 23/18/66 25/28/67 34/27/68
s 2
f 34/27/69 25/28/45 26/3/46 28/2/70 35/6/71 36/24/72 37/25/73 38/26/74
s 7
f 35/6/75 28/2/76 27/1/77 33/5/78
f 35/6/75 33/5/78 32/22/79 36/24/80
f 36/24/80 32/22/79 31/21/81 37/25/82
f 37/25/82 31/21/81 30/20/83 38/26/84
f 38/26/84 30/20/83 29/19/65 34/27/68
