# This file uses centimeters as units for non-parametric coordinates.

v 0.486630 9.365642 -0.499000
v 0.373200 9.365642 -0.499000
v 0.373200 9.365642 0.501000
v 0.486630 9.365642 0.501000
v 0.543884 8.631459 -0.499000
v 0.373200 8.631465 -0.499000
v 0.373200 8.709764 -0.499000
v 0.373200 8.822146 -0.499000
v 0.373200 8.933255 -0.499000
v 0.373200 9.049421 -0.499000
v 0.373200 9.159351 -0.499000
v 0.373200 9.252961 -0.499000
v 0.565182 9.365642 -0.499000
v 0.565182 9.365642 0.501000
v 0.543884 8.631459 0.501000
v 0.373200 9.252961 0.501000
v 0.373200 9.159351 0.501000
v 0.373200 9.049421 0.501000
v 0.373200 8.933255 0.501000
v 0.373200 8.822146 0.501000
v 0.373200 8.709764 0.501000
v 0.373200 8.631465 0.501000
v 0.738785 8.631453 -0.499000
v 0.738785 8.631453 0.501000
v 1.193825 9.365642 -0.499000
v 1.299678 9.365642 -0.499000
v 1.094655 9.365642 -0.499000
v 0.966653 9.365642 -0.499000
v 0.864764 9.365642 -0.499000
v 0.757845 9.365642 -0.499000
v 0.638470 9.365642 -0.499000
v 0.638470 9.365642 0.501000
v 0.757845 9.365642 0.501000
v 0.864764 9.365642 0.501000
v 0.966653 9.365642 0.501000
v 1.094655 9.365642 0.501000
v 1.193825 9.365642 0.501000
v 1.299678 9.365642 0.501000
v 0.963371 8.631445 0.501000
v 1.354164 9.365642 0.501000
v 0.963371 8.631445 -0.499000
v 1.354164 9.365642 -0.499000
v 1.399572 9.365642 0.501000
v 1.399572 9.365642 -0.499000
v 1.158522 8.631438 0.501000
v 1.158522 8.631438 -0.499000
v 1.460520 9.365642 -0.499000
v 1.327152 8.631433 -0.499000
v 1.460520 9.365642 0.501000
v 1.327152 8.631433 0.501000
v 1.517462 8.631427 -0.499000
v 1.517462 8.631427 0.501000
v 1.517462 9.365642 -0.499000
v 1.517462 9.365642 0.501000
vt 0.719877 1.000000
vt 0.719877 1.000000
vt 0.711626 1.000000
vt 0.711626 1.000000
vt 0.719877 0.897108
vt 0.719877 0.897108
vt 0.702795 1.000000
vt 0.696216 1.000000
vt 0.688321 1.000000
vt 0.672983 1.000000
vt 0.658614 1.000000
vt 0.640067 1.000000
vt 0.625304 1.000000
vt 0.609812 1.000000
vt 0.592515 1.000000
vt 0.581896 1.000000
vt 0.570515 1.000000
vt 0.555264 1.000000
vt 0.555264 0.984209
vt 0.555264 0.971091
vt 0.555264 0.955685
vt 0.555264 0.939406
vt 0.555264 0.923835
vt 0.555264 0.908086
vt 0.555264 0.897114
vt 0.578810 0.897113
vt 0.607051 0.897112
vt 0.639592 0.897111
vt 0.667868 0.897110
vt 0.692302 0.897109
vt 0.702795 1.000000
vt 0.692302 0.897109
vt 0.667868 0.897110
vt 0.639592 0.897111
vt 0.607051 0.897112
vt 0.578810 0.897113
vt 0.555264 0.897114
vt 0.555264 0.908086
vt 0.555264 0.923835
vt 0.555264 0.939406
vt 0.555264 0.955685
vt 0.555264 0.971091
vt 0.555264 0.984209
vt 0.555264 1.000000
vt 0.570515 1.000000
vt 0.581896 1.000000
vt 0.592515 1.000000
vt 0.609812 1.000000
vt 0.625304 1.000000
vt 0.640067 1.000000
vt 0.658614 1.000000
vt 0.672983 1.000000
vt 0.688321 1.000000
vt 0.696216 1.000000
vn 0.000000 1.000000 0.000000
vn 0.000000 1.000000 0.000000
vn 0.000000 1.000000 0.000000
vn 0.000000 1.000000 0.000000
vn -0.000000 0.000000 -1.000000
vn -0.000000 0.000000 -1.000000
vn -0.000000 0.000000 -1.000000
vn -0.000000 0.000000 -1.000000
vn -0.000000 0.000000 -1.000000
vn -0.000000 0.000000 -1.000000
vn -0.000000 0.000000 -1.000000
vn -0.000000 0.000000 -1.000000
vn -0.000000 0.000000 -1.000000
vn -0.000000 0.000000 -1.000000
vn 0.000000 0.000000 -1.000000
vn 0.000000 1.000000 0.000000
vn 0.000000 1.000000 0.000000
vn 0.000000 0.000000 1.000000
vn -0.000000 0.000000 1.000000
vn -0.000000 0.000000 1.000000
vn -0.000000 0.000000 1.000000
vn -0.000000 0.000000 1.000000
vn -0.000000 0.000000 1.000000
vn -0.000000 0.000000 1.000000
vn -0.000000 0.000000 1.000000
vn -0.000000 0.000000 1.000000
vn -0.000000 0.000000 1.000000
vn -0.000000 0.000000 1.000000
vn -1.000000 0.000000 0.000000
vn -1.000000 0.000000 0.000000
vn -1.000000 0.000000 0.000000
vn -1.000000 0.000000 0.000000
vn -1.000000 0.000000 0.000000
vn -1.000000 0.000000 0.000000
vn -1.000000 0.000000 0.000000
vn -1.000000 0.000000 0.000000
vn -1.000000 0.000000 0.000000
vn -1.000000 0.000000 0.000000
vn -1.000000 0.000000 0.000000
vn -1.000000 0.000000 0.000000
vn -1.000000 0.000000 0.000000
vn -1.000000 0.000000 0.000000
vn -1.000000 0.000000 0.000000
vn -1.000000 0.000000 0.000000
vn -0.000034 -1.000000 0.000000
vn -0.000034 -1.000000 0.000000
vn -0.000034 -1.000000 0.000000
vn -0.000034 -1.000000 0.000000
vn -0.000034 -1.000000 0.000000
vn -0.000034 -1.000000 0.000000
vn 0.000000 0.000000 -1.000000
vn 0.000000 0.000000 -1.000000
vn 0.000000 0.000000 -1.000000
vn 0.000000 0.000000 -1.000000
vn 0.000000 0.000000 -1.000000
vn 0.000000 0.000000 -1.000000
vn 0.000000 0.000000 -1.000000
vn 0.000000 0.000000 -1.000000
vn 0.000000 1.000000 0.000000
vn 0.000000 1.000000 0.000000
vn 0.000000 0.000000 1.000000
vn 0.000000 0.000000 1.000000
vn 0.000000 0.000000 1.000000
vn 0.000000 0.000000 1.000000
vn 0.000000 0.000000 1.000000
vn 0.000000 0.000000 1.000000
vn 0.000000 0.000000 1.000000
vn 0.000000 0.000000 1.000000
vn 0.000000 0.000000 1.000000
vn 0.000000 0.000000 1.000000
vn -0.000034 -1.000000 0.000000
vn -0.000034 -1.000000 0.000000
vn 0.000000 0.000000 -1.000000
vn 0.000000 0.000000 -1.000000
vn 0.000000 1.000000 0.000000
vn 0.000000 1.000000 0.000000
vn 0.000000 1.000000 0.000000
vn 0.000000 1.000000 0.000000
vn 0.000000 1.000000 0.000000
vn 0.000000 1.000000 0.000000
vn 0.000000 1.000000 0.000000
vn 0.000000 1.000000 0.000000
vn 0.000000 1.000000 0.000000
vn 0.000000 1.000000 0.000000
vn 0.000000 1.000000 0.000000
vn 0.000000 1.000000 0.000000
vn 0.000000 1.000000 0.000000
vn 0.000000 1.000000 0.000000
vn 0.000000 1.000000 0.000000
vn 0.000000 1.000000 0.000000
vn -0.000000 0.000000 1.000000
vn -0.000000 0.000000 1.000000
vn -0.000031 -1.000000 0.000000
vn -0.000031 -1.000000 0.000000
vn 0.000000 0.000000 -1.000000
vn 0.000000 0.000000 -1.000000
vn 0.000000 0.000000 -1.000000
vn 0.000000 0.000000 -1.000000
vn 0.000000 1.000000 0.000000
vn 0.000000 1.000000 0.000000
vn -0.000000 0.000000 1.000000
vn -0.000000 0.000000 1.000000
vn -0.000032 -1.000000 0.000000
vn -0.000032 -1.000000 0.000000
vn -0.000035 -1.000000 0.000000
vn -0.000035 -1.000000 0.000000
vn 0.000000 0.000000 -1.000000
vn 0.000000 0.000000 -1.000000
vn 0.000000 1.000000 0.000000
vn 0.000000 1.000000 0.000000
vn 0.000000 0.000000 1.000000
vn 0.000000 0.000000 1.000000
vn 1.000000 0.000000 0.000000
vn 1.000000 0.000000 0.000000
vn 1.000000 0.000000 0.000000
vn 1.000000 0.000000 0.000000
s 1
f 1/45/1 2/44/2 3/18/3 4/17/4
s 2
f 2/44/5 1/45/6 5/36/7 6/37/8 7/38/9 8/39/10 9/40/11 10/41/12 11/42/13 12/43/14
f 5/36/7 1/45/6 13/46/15
s 1
f 13/46/16 1/45/1 4/17/4 14/16/17
s 3
f 14/16/18 4/17/19 15/26/20
f 15/26/20 4/17/19 3/18/21 16/19/22 17/20/23 18/21/24 19/22/25 20/23/26 21/24/27 22/25/28
s 4
f 16/19/29 3/18/30 2/44/31 12/43/32
f 16/19/29 12/43/32 11/42/33 17/20/34
f 17/20/34 11/42/33 10/41/35 18/21/36
f 18/21/36 10/41/35 9/40/37 19/22/38
f 19/22/38 9/40/37 8/39/39 20/23/40
f 20/23/40 8/39/39 7/38/41 21/24/42
f 21/24/42 7/38/41 6/37/43 22/25/44
s 5
f 22/25/45 6/37/46 5/36/47 15/26/48
f 15/26/48 5/36/47 23/35/49 24/27/50
s 2
f 23/35/51 5/36/7 25/52/52 26/53/53
f 25/52/52 5/36/7 27/51/54
f 27/51/54 5/36/7 28/50/55
f 28/50/55 5/36/7 29/49/56
f 29/49/56 5/36/7 30/48/57
f 30/48/57 5/36/7 31/47/58
f 31/47/58 5/36/7 13/46/15
s 1
f 31/47/59 13/46/16 14/16/17 32/15/60
s 3
f 32/15/61 14/16/18 15/26/20
f 32/15/61 15/26/20 33/14/62
f 33/14/62 15/26/20 34/13/63
f 34/13/63 15/26/20 35/12/64
f 35/12/64 15/26/20 36/11/65
f 36/11/65 15/26/20 37/10/66
f 37/10/66 15/26/20 24/27/67 38/9/68
f 38/9/68 24/27/67 39/28/69 40/8/70
s 5
f 39/28/71 24/27/50 23/35/49 41/34/72
s 2
f 41/34/73 23/35/51 26/53/53 42/54/74
s 1
f 42/54/75 26/53/76 38/9/77 40/8/78
f 38/9/77 26/53/76 25/52/79 37/10/80
f 37/10/80 25/52/79 27/51/81 36/11/82
f 36/11/82 27/51/81 28/50/83 35/12/84
f 35/12/84 28/50/83 29/49/85 34/13/86
f 34/13/86 29/49/85 30/48/87 33/14/88
f 33/14/88 30/48/87 31/47/59 32/15/60
f 42/54/75 40/8/78 43/7/89 44/31/90
s 3
f 43/7/91 40/8/70 39/28/69 45/29/92
s 5
f 45/29/93 39/28/71 41/34/72 46/33/94
s 2
f 46/33/95 41/34/73 42/54/74 44/31/96
f 46/33/95 44/31/96 47/3/97 48/32/98
s 1
f 47/3/99 44/31/90 43/7/89 49/4/100
s 3
f 49/4/101 43/7/91 45/29/92 50/30/102
s 5
f 50/30/103 45/29/93 46/33/94 48/32/104
f 50/30/103 48/32/104 51/6/105 52/5/106
s 2
f 51/6/107 48/32/98 47/3/97 53/2/108
s 1
f 53/2/109 47/3/99 49/4/100 54/1/110
s 3
f 54/1/111 49/4/101 50/30/102 52/5/112
s off
f 54/1/113 52/5/114 51/6/115 53/2/116
