# This file uses centimeters as units for non-parametric coordinates.

v 2.845478 9.365642 -0.499000
v 2.653546 9.365642 -0.499000
v 2.653546 9.365642 0.501000
v 2.845478 9.365642 0.501000
v 2.661972 8.619896 -0.499000
v 2.653546 8.631389 -0.499000
v 2.998056 9.365642 -0.499000
v 2.998056 9.365642 0.501000
v 2.661972 8.619896 0.501000
v 2.653546 8.631389 0.501000
v 2.670711 8.607977 -0.499000
v 2.670711 8.607977 0.501000
v 3.200808 9.365642 -0.499000
v 3.200808 9.365642 0.501000
v 2.681295 8.593542 0.501000
v 3.368900 9.365642 0.501000
v 2.681295 8.593542 -0.499000
v 3.368900 9.365642 -0.499000
v 3.449247 9.323701 0.501000
v 3.449247 9.323701 -0.499000
v 2.688268 8.584032 0.501000
v 2.688268 8.584032 -0.499000
v 3.449532 9.093261 -0.499000
v 2.694264 8.575854 -0.499000
v 3.449532 9.093261 0.501000
v 2.694264 8.575854 0.501000
v 2.701768 8.565620 -0.499000
v 2.701768 8.565620 0.501000
v 3.449897 8.798106 -0.499000
v 3.449897 8.798106 0.501000
v 2.709044 8.555696 0.501000
v 3.450197 8.556196 0.501000
v 2.709044 8.555696 -0.499000
v 3.450197 8.556196 -0.499000
vt 0.999920 0.886566
vt 0.999920 0.886566
vt 0.999876 0.920466
vt 0.999876 0.920466
vt 0.892531 0.886496
vt 0.892531 0.886496
vt 0.999823 0.961829
vt 0.999782 0.994123
vt 0.988140 1.000000
vt 0.963785 1.000000
vt 0.934407 1.000000
vt 0.912299 1.000000
vt 0.884489 1.000000
vt 0.884489 0.897103
vt 0.885710 0.895492
vt 0.886976 0.893822
vt 0.888510 0.891799
vt 0.889520 0.890466
vt 0.890389 0.889320
vt 0.891476 0.887886
vt 0.999823 0.961829
vt 0.891476 0.887886
vt 0.890389 0.889320
vt 0.889520 0.890466
vt 0.888510 0.891799
vt 0.886976 0.893822
vt 0.885710 0.895492
vt 0.884489 0.897103
vt 0.884489 1.000000
vt 0.912299 1.000000
vt 0.934407 1.000000
vt 0.963785 1.000000
vt 0.988140 1.000000
vt 0.999782 0.994123
vn 0.000000 1.000000 0.000000
vn 0.000000 1.000000 0.000000
vn 0.000000 1.000000 0.000000
vn 0.000000 1.000000 0.000000
vn 0.000000 0.000000 -1.000000
vn 0.000000 0.000000 -1.000000
vn 0.000000 0.000000 -1.000000
vn 0.000000 0.000000 -1.000000
vn 0.000000 0.000000 -1.000000
vn 0.000000 1.000000 0.000000
vn 0.000000 1.000000 0.000000
vn 0.000000 0.000000 1.000000
vn -0.000000 0.000000 1.000000
vn -0.000000 0.000000 1.000000
vn -0.000000 0.000000 1.000000
vn -0.000000 0.000000 1.000000
vn -1.000000 0.000001 0.000000
vn -1.000000 0.000001 0.000000
vn -1.000000 0.000001 0.000000
vn -1.000000 0.000001 0.000000
vn -0.806466 -0.591281 0.000000
vn -0.806466 -0.591281 0.000000
vn -0.806462 -0.591287 0.000000
vn -0.806462 -0.591287 0.000000
vn -0.806449 -0.591303 0.000000
vn -0.806449 -0.591303 0.000000
vn 0.000000 0.000000 -1.000000
vn 0.000000 0.000000 -1.000000
vn 0.000000 1.000000 0.000000
vn 0.000000 1.000000 0.000000
vn 0.000000 0.000000 1.000000
vn 0.000000 0.000000 1.000000
vn 0.000000 0.000000 1.000000
vn 0.000000 0.000000 1.000000
vn -0.806444 -0.591311 0.000000
vn -0.806444 -0.591311 0.000000
vn -0.000000 0.000000 -1.000000
vn -0.000000 0.000000 -1.000000
vn 0.166462 0.986048 0.000000
vn 0.166462 0.986048 0.000000
vn 0.462744 0.886492 0.000000
vn 0.462744 0.886492 0.000000
vn 0.000000 0.000000 1.000000
vn 0.000000 0.000000 1.000000
vn -0.806449 -0.591303 0.000000
vn -0.806449 -0.591303 0.000000
vn -0.000000 0.000000 -1.000000
vn -0.000000 0.000000 -1.000000
vn 0.000000 0.000000 -1.000000
vn 0.000000 0.000000 -1.000000
vn 0.999999 0.001237 0.000000
vn 0.999999 0.001237 0.000000
vn 0.999999 0.001237 0.000000
vn 0.999999 0.001237 0.000000
vn 0.000000 0.000000 1.000000
vn 0.000000 0.000000 1.000000
vn -0.806445 -0.591310 0.000000
vn -0.806445 -0.591310 0.000000
vn -0.806445 -0.591309 0.000000
vn -0.806445 -0.591309 0.000000
vn 0.000000 0.000000 -1.000000
vn 0.000000 0.000000 -1.000000
vn 0.999999 0.001239 0.000000
vn 0.999999 0.001239 0.000000
vn 0.000000 0.000000 1.000000
vn 0.000000 0.000000 1.000000
vn 0.000000 0.000000 1.000000
vn 0.000000 0.000000 1.000000
vn -0.806454 -0.591297 0.000000
vn -0.806454 -0.591297 0.000000
vn -0.000000 0.000000 -1.000000
vn -0.000000 0.000000 -1.000000
vn 0.999999 0.001240 0.000000
vn 0.999999 0.001240 0.000000
vn 0.000674 -1.000000 0.000000
vn 0.000674 -1.000000 0.000000
vn 0.000674 -1.000000 0.000000
vn 0.000674 -1.000000 0.000000
s 1
f 1/30/1 2/29/2 3/13/3 4/12/4
s 2
f 2/29/5 1/30/6 5/27/7 6/28/8
f 5/27/7 1/30/6 7/31/9
s 1
f 7/31/10 1/30/1 4/12/4 8/11/11
s 3
f 8/11/12 4/12/13 9/15/14
f 9/15/14 4/12/13 3/13/15 10/14/16
s off
f 10/14/17 3/13/18 2/29/19 6/28/20
s 4
f 10/14/21 6/28/22 5/27/23 9/15/24
f 9/15/24 5/27/23 11/26/25 12/16/26
s 2
f 11/26/27 5/27/7 7/31/9 13/32/28
s 1
f 13/32/29 7/31/10 8/11/11 14/10/30
s 3
f 14/10/31 8/11/12 9/15/14 12/16/32
f 14/10/31 12/16/32 15/17/33 16/9/34
s 4
f 15/17/35 12/16/26 11/26/25 17/25/36
s 2
f 17/25/37 11/26/27 13/32/28 18/33/38
s 1
f 18/33/39 13/32/29 14/10/30 16/9/40
f 18/33/39 16/9/40 19/8/41 20/34/42
s 3
f 19/8/43 16/9/34 15/17/33 21/18/44
s 4
f 21/18/45 15/17/35 17/25/36 22/24/46
s 2
f 22/24/47 17/25/37 18/33/38 20/34/48
f 22/24/47 20/34/48 23/21/49 24/23/50
s 5
f 23/21/51 20/34/52 19/8/53 25/7/54
s 3
f 25/7/55 19/8/43 21/18/44 26/19/56
s 4
f 26/19/57 21/18/45 22/24/46 24/23/58
f 26/19/57 24/23/58 27/22/59 28/20/60
s 2
f 27/22/61 24/23/50 23/21/49 29/3/62
s 5
f 29/3/63 23/21/51 25/7/54 30/4/64
s 3
f 30/4/65 25/7/55 26/19/56 28/20/66
f 30/4/65 28/20/66 31/5/67 32/1/68
s 4
f 31/5/69 28/20/60 27/22/59 33/6/70
s 2
f 33/6/71 27/22/61 29/3/62 34/2/72
s 5
f 34/2/73 29/3/63 30/4/64 32/1/74
s off
f 34/2/75 32/1/76 31/5/77 33/6/78
