# This file uses centimeters as units for non-parametric coordinates.

v 3.450250 8.475565 -0.499000
v 3.450197 8.556196 -0.499000
v 3.450197 8.556196 0.501000
v 3.450250 8.475565 0.501000
v 2.709044 8.384510 -0.499000
v 2.709044 8.555696 -0.499000
v 3.450303 8.394934 -0.499000
v 3.450303 8.394934 0.501000
v 2.709044 8.384510 0.501000
v 2.709044 8.555696 0.501000
v 2.709044 8.265484 -0.499000
v 2.709044 8.265484 0.501000
v 3.450516 8.072407 -0.499000
v 3.450569 7.991776 -0.499000
v 3.450462 8.153038 -0.499000
v 3.450409 8.233670 -0.499000
v 3.450356 8.314302 -0.499000
v 3.450356 8.314302 0.501000
v 3.450409 8.233670 0.501000
v 3.450462 8.153038 0.501000
v 3.450516 8.072407 0.501000
v 3.450569 7.991776 0.501000
v 2.709044 7.910796 0.501000
v 3.450622 7.911144 0.501000
v 2.709044 7.910796 -0.499000
v 3.450622 7.911144 -0.499000
vt 0.999981 0.796169
vt 0.999981 0.796169
vt 0.999974 0.807469
vt 0.999974 0.807469
vt 0.892531 0.796120
vt 0.892531 0.796120
vt 0.999966 0.818768
vt 0.999958 0.830068
vt 0.999951 0.841367
vt 0.999943 0.852667
vt 0.999935 0.863967
vt 0.999928 0.875266
vt 0.999920 0.886566
vt 0.892531 0.886496
vt 0.892531 0.862506
vt 0.892531 0.845826
vt 0.999966 0.818768
vt 0.892531 0.845826
vt 0.892531 0.862506
vt 0.892531 0.886496
vt 0.999920 0.886566
vt 0.999928 0.875266
vt 0.999935 0.863967
vt 0.999943 0.852667
vt 0.999951 0.841367
vt 0.999958 0.830068
vn 1.000000 0.000658 0.000000
vn 1.000000 0.000656 0.000000
vn 1.000000 0.000656 0.000000
vn 1.000000 0.000658 0.000000
vn -0.000000 0.000000 -1.000000
vn -0.000000 0.000000 -1.000000
vn -0.000000 0.000000 -1.000000
vn -0.000000 0.000000 -1.000000
vn 0.000000 0.000000 -1.000000
vn 1.000000 0.000659 0.000000
vn 1.000000 0.000659 0.000000
vn -0.000000 0.000000 1.000000
vn 0.000000 0.000000 1.000000
vn 0.000000 0.000000 1.000000
vn 0.000000 0.000000 1.000000
vn 0.000000 0.000000 1.000000
vn -0.000674 1.000000 0.000000
vn -0.000674 1.000000 0.000000
vn -0.000674 1.000000 0.000000
vn -0.000674 1.000000 0.000000
vn -1.000000 0.000000 0.000000
vn -1.000000 0.000000 0.000000
vn -1.000000 0.000000 0.000000
vn -1.000000 0.000000 0.000000
vn -1.000000 0.000000 0.000000
vn -1.000000 0.000000 0.000000
vn 0.000000 0.000000 -1.000000
vn -0.000000 0.000000 -1.000000
vn 0.000000 0.000000 -1.000000
vn -0.000000 0.000000 -1.000000
vn 0.000000 0.000000 -1.000000
vn 0.000000 0.000000 -1.000000
vn 1.000000 0.000658 0.000000
vn 1.000000 0.000658 0.000000
vn -0.000000 0.000000 1.000000
vn 0.000000 0.000000 1.000000
vn -0.000000 0.000000 1.000000
vn 0.000000 0.000000 1.000000
vn -0.000000 0.000000 1.000000
vn -0.000000 0.000000 1.000000
vn -0.000000 0.000000 1.000000
vn -0.000000 0.000000 1.000000
vn -1.000000 0.000000 0.000000
vn -1.000000 0.000000 0.000000
vn 0.000000 0.000000 -1.000000
vn 0.000000 0.000000 -1.000000
vn 1.000000 0.000656 0.000000
vn 1.000000 0.000658 0.000000
vn 1.000000 0.000658 0.000000
vn 1.000000 0.000656 0.000000
vn 1.000000 0.000659 0.000000
vn 1.000000 0.000659 0.000000
vn 1.000000 0.000658 0.000000
vn 1.000000 0.000658 0.000000
vn 1.000000 0.000656 0.000000
vn 1.000000 0.000656 0.000000
vn 0.000469 -1.000000 0.000000
vn 0.000469 -1.000000 0.000000
vn 0.000469 -1.000000 0.000000
vn 0.000469 -1.000000 0.000000
s 1
f 1/22/1 2/21/2 3/13/3 4/12/4
s 2
f 2/21/5 1/22/6 5/19/7 6/20/8
f 5/19/7 1/22/6 7/23/9
s 1
f 7/23/10 1/22/1 4/12/4 8/11/11
s 3
f 8/11/12 4/12/13 9/15/14
f 9/15/14 4/12/13 3/13/15 10/14/16
s off
f 10/14/17 3/13/18 2/21/19 6/20/20
s 4
f 10/14/21 6/20/22 5/19/23 9/15/24
f 9/15/24 5/19/23 11/18/25 12/16/26
s 2
f 11/18/27 5/19/7 13/17/28 14/3/29
f 13/17/28 5/19/7 15/26/30
f 15/26/30 5/19/7 16/25/31
f 16/25/31 5/19/7 17/24/32
f 17/24/32 5/19/7 7/23/9
s 1
f 17/24/33 7/23/10 8/11/11 18/10/34
s 3
f 18/10/35 8/11/12 9/15/14
f 18/10/35 9/15/14 19/9/36
f 19/9/36 9/15/14 20/8/37
f 20/8/37 9/15/14 21/7/38
f 21/7/38 9/15/14 12/16/39 22/4/40
f 22/4/40 12/16/39 23/5/41 24/1/42
s 4
f 23/5/43 12/16/26 11/18/25 25/6/44
s 2
f 25/6/45 11/18/27 14/3/29 26/2/46
s 1
f 26/2/47 14/3/48 22/4/49 24/1/50
f 22/4/49 14/3/48 13/17/51 21/7/52
f 21/7/52 13/17/51 15/26/53 20/8/54
f 20/8/54 15/26/53 16/25/55 19/9/56
f 19/9/56 16/25/55 17/24/33 18/10/34
s off
f 26/2/57 24/1/58 23/5/59 25/6/60
