# This file uses centimeters as units for non-parametric coordinates.

v 3.449629 6.231925 -0.499000
v 3.450751 7.104378 -0.499000
v 3.450751 7.104378 0.501000
v 3.449629 6.231925 0.501000
v 2.709044 6.234119 -0.499000
v 2.709044 7.104677 -0.499000
v 2.709044 6.234119 0.501000
v 2.709044 7.104677 0.501000
vt 0.999838 0.560846
vt 0.999838 0.560846
vt 1.000000 0.683110
vt 1.000000 0.683110
vt 0.892531 0.561154
vt 0.892531 0.561154
vt 0.892531 0.683152
vt 0.892531 0.683152
vn 0.999999 -0.001285 0.000000
vn 0.999999 -0.001285 0.000000
vn 0.999999 -0.001285 0.000000
vn 0.999999 -0.001285 0.000000
vn -0.000000 0.000000 -1.000000
vn -0.000000 0.000000 -1.000000
vn -0.000000 0.000000 -1.000000
vn -0.000000 0.000000 -1.000000
vn -0.002962 -0.999996 0.000000
vn -0.002962 -0.999996 0.000000
vn -0.002962 -0.999996 0.000000
vn -0.002962 -0.999996 0.000000
vn 0.000000 0.000000 1.000000
vn 0.000000 0.000000 1.000000
vn 0.000000 0.000000 1.000000
vn 0.000000 0.000000 1.000000
vn 0.000403 1.000000 -0.000001
vn 0.000403 1.000000 -0.000001
vn 0.000403 1.000000 -0.000001
vn 0.000403 1.000000 -0.000001
vn -1.000000 0.000000 0.000000
vn -1.000000 0.000000 0.000000
vn -1.000000 0.000000 0.000000
vn -1.000000 0.000000 0.000000
s off
f 1/2/1 2/3/2 3/4/3 4/1/4
f 2/3/5 1/2/6 5/6/7 6/8/8
f 5/6/9 1/2/10 4/1/11 7/5/12
f 7/5/13 4/1/14 3/4/15 8/7/16
f 8/7/17 3/4/18 2/3/19 6/8/20
f 8/7/21 6/8/22 5/6/23 7/5/24
