# This file uses centimeters as units for non-parametric coordinates.

v 3.448647 5.900181 -0.499000
v 3.449629 6.231925 -0.499000
v 3.449629 6.231925 0.501000
v 3.448647 5.900181 0.501000
v 2.708644 5.897959 -0.499000
v 2.709044 6.234119 -0.499000
v 3.445283 5.754148 -0.499000
v 3.445283 5.754148 0.501000
v 2.708644 5.897959 0.501000
v 2.709044 6.234119 0.501000
v 2.705647 5.806087 -0.499000
v 2.705647 5.806087 0.501000
v 3.435506 5.608405 -0.499000
v 3.435506 5.608405 0.501000
v 2.700184 5.714286 0.501000
v 3.419337 5.463231 0.501000
v 2.700184 5.714286 -0.499000
v 3.419337 5.463231 -0.499000
v 3.409195 5.398274 0.501000
v 3.409195 5.398274 -0.499000
v 2.676904 5.512603 0.501000
v 2.676904 5.512603 -0.499000
vt 0.993979 0.444020
vt 0.993979 0.444020
vt 0.995448 0.453122
vt 0.995448 0.453122
vt 0.887874 0.460041
vt 0.887874 0.460041
vt 0.997791 0.473467
vt 0.999208 0.493891
vt 0.999695 0.514356
vt 0.999838 0.560846
vt 0.892531 0.561154
vt 0.892473 0.514045
vt 0.892038 0.501170
vt 0.891247 0.488305
vt 0.997791 0.473467
vt 0.891247 0.488305
vt 0.892038 0.501170
vt 0.892473 0.514045
vt 0.892531 0.561154
vt 0.999838 0.560846
vt 0.999695 0.514356
vt 0.999208 0.493891
vn 0.999959 -0.009097 0.000000
vn 0.999996 -0.002962 0.000000
vn 0.999996 -0.002962 0.000000
vn 0.999959 -0.009097 0.000000
vn -0.000000 0.000000 -1.000000
vn -0.000000 0.000000 -1.000000
vn -0.000000 0.000000 -1.000000
vn -0.000000 0.000000 -1.000000
vn 0.000000 0.000000 -1.000000
vn 0.998988 -0.044990 0.000000
vn 0.998988 -0.044990 0.000000
vn 0.000000 0.000000 1.000000
vn -0.000000 0.000000 1.000000
vn -0.000000 0.000000 1.000000
vn -0.000000 0.000000 1.000000
vn -0.000000 0.000000 1.000000
vn 0.002962 0.999996 0.000000
vn 0.002962 0.999996 0.000000
vn 0.002962 0.999996 0.000000
vn 0.002962 0.999996 0.000000
vn -0.999999 0.001192 0.000000
vn -0.999999 0.001192 0.000000
vn -0.999969 0.007938 0.000000
vn -0.999969 0.007938 0.000000
vn -0.998941 0.046012 0.000000
vn -0.998941 0.046012 0.000000
vn 0.000000 0.000000 -1.000000
vn 0.000000 0.000000 -1.000000
vn 0.996046 -0.088835 0.000000
vn 0.996046 -0.088835 0.000000
vn -0.000000 0.000000 1.000000
vn 0.000000 0.000000 1.000000
vn -0.000000 0.000000 1.000000
vn -0.000000 0.000000 1.000000
vn -0.995239 0.097468 0.000000
vn -0.995239 0.097468 0.000000
vn 0.000000 0.000000 -1.000000
vn 0.000000 0.000000 -1.000000
vn 0.992252 -0.124245 0.000000
vn 0.992252 -0.124245 0.000000
vn 0.988030 -0.154264 0.000000
vn 0.988030 -0.154264 0.000000
vn 0.000000 0.000000 1.000000
vn 0.000000 0.000000 1.000000
vn -0.993404 0.114666 0.000000
vn -0.993404 0.114666 0.000000
vn 0.000000 0.000000 -1.000000
vn 0.000000 0.000000 -1.000000
vn -0.154256 -0.988031 0.000000
vn -0.154256 -0.988031 0.000000
vn -0.154256 -0.988031 0.000000
vn -0.154256 -0.988031 0.000000
s 1
f 1/21/1 2/20/2 3/10/3 4/9/4
s 2
f 2/20/5 1/21/6 5/18/7 6/19/8
f 5/18/7 1/21/6 7/22/9
s 1
f 7/22/10 1/21/1 4/9/4 8/8/11
s 3
f 8/8/12 4/9/13 9/12/14
f 9/12/14 4/9/13 3/10/15 10/11/16
s off
f 10/11/17 3/10/18 2/20/19 6/19/20
s 4
f 10/11/21 6/19/22 5/18/23 9/12/24
f 9/12/24 5/18/23 11/17/25 12/13/26
s 2
f 11/17/27 5/18/7 7/22/9 13/15/28
s 1
f 13/15/29 7/22/10 8/8/11 14/7/30
s 3
f 14/7/31 8/8/12 9/12/14 12/13/32
f 14/7/31 12/13/32 15/14/33 16/4/34
s 4
f 15/14/35 12/13/26 11/17/25 17/16/36
s 2
f 17/16/37 11/17/27 13/15/28 18/3/38
s 1
f 18/3/39 13/15/29 14/7/30 16/4/40
f 18/3/39 16/4/40 19/1/41 20/2/42
s 3
f 19/1/43 16/4/34 15/14/33 21/5/44
s 4
f 21/5/45 15/14/35 17/16/36 22/6/46
s 2
f 22/6/47 17/16/37 18/3/38 20/2/48
s off
f 22/6/49 20/2/50 19/1/51 21/5/52
