# This file uses centimeters as units for non-parametric coordinates.

v 3.396804 5.318908 -0.499000
v 3.409195 5.398274 -0.499000
v 3.409195 5.398274 0.501000
v 3.396804 5.318908 0.501000
v 2.659386 5.412596 -0.499000
v 2.676904 5.512603 -0.499000
v 3.367953 5.175714 -0.499000
v 2.637983 5.313347 -0.499000
v 3.367953 5.175714 0.501000
v 2.659386 5.412596 0.501000
v 2.637983 5.313347 0.501000
v 2.676904 5.512603 0.501000
v 2.612727 5.215009 -0.499000
v 2.612727 5.215009 0.501000
v 3.332839 5.033926 -0.499000
v 3.332839 5.033926 0.501000
v 2.583657 5.117729 0.501000
v 3.291530 4.893818 0.501000
v 2.583657 5.117729 -0.499000
v 3.291530 4.893818 -0.499000
v 3.244105 4.755660 0.501000
v 3.244105 4.755660 -0.499000
v 2.550817 5.021657 0.501000
v 2.550817 5.021657 -0.499000
v 3.195816 4.632842 -0.499000
v 2.514256 4.926938 -0.499000
v 3.195816 4.632842 0.501000
v 2.514256 4.926938 0.501000
vt 0.963061 0.336753
vt 0.963061 0.336753
vt 0.970058 0.353965
vt 0.970058 0.353965
vt 0.864307 0.377967
vt 0.864307 0.377967
vt 0.976930 0.373326
vt 0.982915 0.392960
vt 0.988003 0.412830
vt 0.992184 0.432897
vt 0.993979 0.444020
vt 0.887874 0.460041
vt 0.885335 0.446027
vt 0.882234 0.432118
vt 0.878575 0.418337
vt 0.874363 0.404704
vt 0.869604 0.391241
vt 0.976930 0.373326
vt 0.869604 0.391241
vt 0.874363 0.404704
vt 0.878575 0.418337
vt 0.882234 0.432118
vt 0.885335 0.446027
vt 0.887874 0.460041
vt 0.993979 0.444020
vt 0.992184 0.432897
vt 0.988003 0.412830
vt 0.982915 0.392960
vn 0.983261 -0.182204 0.000000
vn 0.988032 -0.154251 0.000000
vn 0.988032 -0.154251 0.000000
vn 0.983261 -0.182204 0.000000
vn 0.000000 0.000000 -1.000000
vn 0.000000 0.000000 -1.000000
vn 0.000000 0.000000 -1.000000
vn 0.000000 0.000000 -1.000000
vn -0.000000 0.000000 -1.000000
vn -0.000000 0.000000 -1.000000
vn 0.975724 -0.219004 0.000000
vn 0.975724 -0.219004 0.000000
vn 0.000000 0.000000 1.000000
vn -0.000000 0.000000 1.000000
vn -0.000000 0.000000 1.000000
vn 0.000000 0.000000 1.000000
vn -0.000000 0.000000 1.000000
vn -0.000000 0.000000 1.000000
vn 0.154256 0.988031 0.000000
vn 0.154256 0.988031 0.000000
vn 0.154256 0.988031 0.000000
vn 0.154256 0.988031 0.000000
vn -0.985002 0.172540 0.000000
vn -0.985002 0.172540 0.000000
vn -0.981452 0.191708 0.000000
vn -0.981452 0.191708 0.000000
vn -0.973232 0.229823 0.000000
vn -0.973232 0.229823 0.000000
vn -0.963533 0.267590 0.000000
vn -0.963533 0.267590 0.000000
vn 0.000000 0.000000 -1.000000
vn -0.000000 0.000000 -1.000000
vn 0.965160 -0.261659 0.000000
vn 0.965160 -0.261659 0.000000
vn 0.000000 0.000000 1.000000
vn -0.000000 0.000000 1.000000
vn -0.000000 0.000000 1.000000
vn -0.000000 0.000000 1.000000
vn -0.952370 0.304946 0.000000
vn -0.952370 0.304946 0.000000
vn 0.000000 0.000000 -1.000000
vn 0.000000 0.000000 -1.000000
vn 0.952733 -0.303809 0.000000
vn 0.952733 -0.303809 0.000000
vn 0.938850 -0.344327 0.000000
vn 0.938850 -0.344327 0.000000
vn 0.000000 0.000000 1.000000
vn 0.000000 0.000000 1.000000
vn -0.939758 0.341840 0.000000
vn -0.939758 0.341840 0.000000
vn 0.000000 0.000000 -1.000000
vn 0.000000 0.000000 -1.000000
vn 0.000000 0.000000 -1.000000
vn 0.000000 0.000000 -1.000000
vn 0.930650 -0.365911 0.000000
vn 0.930650 -0.365911 0.000000
vn 0.000000 0.000000 1.000000
vn 0.000000 0.000000 1.000000
vn -0.932915 0.360096 0.000000
vn -0.932915 0.360096 0.000000
vn -0.396193 -0.918167 0.000000
vn -0.396193 -0.918167 0.000000
vn -0.396193 -0.918167 0.000000
vn -0.396193 -0.918167 0.000000
s 1
f 1/26/1 2/25/2 3/11/3 4/10/4
s 2
f 2/25/5 1/26/6 5/23/7 6/24/8
f 5/23/7 1/26/6 7/27/9 8/22/10
s 1
f 7/27/11 1/26/1 4/10/4 9/9/12
s 3
f 9/9/13 4/10/14 10/13/15 11/14/16
f 10/13/15 4/10/14 3/11/17 12/12/18
s off
f 12/12/19 3/11/20 2/25/21 6/24/22
s 4
f 12/12/23 6/24/24 5/23/25 10/13/26
f 10/13/26 5/23/25 8/22/27 11/14/28
f 11/14/28 8/22/27 13/21/29 14/15/30
s 2
f 13/21/31 8/22/10 7/27/9 15/28/32
s 1
f 15/28/33 7/27/11 9/9/12 16/8/34
s 3
f 16/8/35 9/9/13 11/14/16 14/15/36
f 16/8/35 14/15/36 17/16/37 18/7/38
s 4
f 17/16/39 14/15/30 13/21/29 19/20/40
s 2
f 19/20/41 13/21/31 15/28/32 20/18/42
s 1
f 20/18/43 15/28/33 16/8/34 18/7/44
f 20/18/43 18/7/44 21/4/45 22/3/46
s 3
f 21/4/47 18/7/38 17/16/37 23/17/48
s 4
f 23/17/49 17/16/39 19/20/40 24/19/50
s 2
f 24/19/51 19/20/41 20/18/42 22/3/52
f 24/19/51 22/3/52 25/2/53 26/6/54
s 1
f 25/2/55 22/3/46 21/4/45 27/1/56
s 3
f 27/1/57 21/4/47 23/17/48 28/5/58
s 4
f 28/5/59 23/17/49 24/19/50 26/6/60
s off
f 28/5/61 26/6/62 25/2/63 27/1/64
