# This file uses centimeters as units for non-parametric coordinates.

v 3.190656 4.619719 -0.499000
v 3.195816 4.632842 -0.499000
v 3.195816 4.632842 0.501000
v 3.190656 4.619719 0.501000
v 2.474030 4.833716 -0.499000
v 2.514256 4.926938 -0.499000
v 3.131287 4.486257 -0.499000
v 3.131287 4.486257 0.501000
v 2.474030 4.833716 0.501000
v 2.514256 4.926938 0.501000
v 2.430202 4.742134 -0.499000
v 2.430202 4.742134 0.501000
v 2.891234 4.054626 -0.499000
v 2.821738 3.952448 -0.499000
v 2.957019 4.159233 -0.499000
v 3.019009 4.266132 -0.499000
v 3.077123 4.375187 -0.499000
v 3.077123 4.375187 0.501000
v 3.019009 4.266132 0.501000
v 2.957019 4.159233 0.501000
v 2.891234 4.054626 0.501000
v 2.821738 3.952448 0.501000
v 2.324176 4.548086 0.501000
v 2.748620 3.852829 0.501000
v 2.324176 4.548086 -0.499000
v 2.748620 3.852829 -0.499000
v 2.671975 3.755897 0.501000
v 2.671975 3.755897 -0.499000
v 2.202626 4.363366 0.501000
v 2.202626 4.363366 -0.499000
v 2.651279 3.731573 -0.499000
v 2.066367 4.189212 -0.499000
v 2.651279 3.731573 0.501000
v 2.066367 4.189212 0.501000
vt 0.884161 0.210451
vt 0.884161 0.210451
vt 0.887159 0.213859
vt 0.887159 0.213859
vt 0.799410 0.274584
vt 0.799410 0.274584
vt 0.898265 0.227443
vt 0.908859 0.241404
vt 0.918929 0.255723
vt 0.928461 0.270382
vt 0.937443 0.285363
vt 0.945863 0.300646
vt 0.953711 0.316211
vt 0.962314 0.334914
vt 0.963061 0.336753
vt 0.864307 0.377967
vt 0.858478 0.364903
vt 0.852128 0.352069
vt 0.836765 0.324876
vt 0.819153 0.298989
vt 0.898265 0.227443
vt 0.819153 0.298989
vt 0.836765 0.324876
vt 0.852128 0.352069
vt 0.858478 0.364903
vt 0.864307 0.377967
vt 0.963061 0.336753
vt 0.962314 0.334914
vt 0.953711 0.316211
vt 0.945863 0.300646
vt 0.937443 0.285363
vt 0.928461 0.270382
vt 0.918929 0.255723
vt 0.908859 0.241404
vn 0.915242 -0.402905 0.000000
vn 0.930650 -0.365910 0.000000
vn 0.930650 -0.365910 0.000000
vn 0.915242 -0.402905 0.000000
vn 0.000000 0.000000 -1.000000
vn 0.000000 0.000000 -1.000000
vn -0.000000 0.000000 -1.000000
vn 0.000000 0.000000 -1.000000
vn 0.000000 0.000000 -1.000000
vn 0.907008 -0.421113 0.000000
vn 0.907008 -0.421113 0.000000
vn -0.000000 0.000000 1.000000
vn -0.000000 0.000000 1.000000
vn -0.000000 0.000000 1.000000
vn -0.000000 0.000000 1.000000
vn -0.000000 0.000000 1.000000
vn 0.396193 0.918167 0.000000
vn 0.396193 0.918167 0.000000
vn 0.396193 0.918167 0.000000
vn 0.396193 0.918167 0.000000
vn -0.918167 0.396193 0.000000
vn -0.918167 0.396193 0.000000
vn -0.910270 0.414015 0.000000
vn -0.910270 0.414015 0.000000
vn -0.885527 0.464588 0.000000
vn -0.885527 0.464588 0.000000
vn 0.000000 0.000000 -1.000000
vn -0.000000 0.000000 -1.000000
vn 0.000000 0.000000 -1.000000
vn -0.000000 0.000000 -1.000000
vn -0.000000 0.000000 -1.000000
vn 0.000000 0.000000 -1.000000
vn 0.890812 -0.454372 0.000000
vn 0.890812 -0.454372 0.000000
vn 0.000000 0.000000 1.000000
vn -0.000000 0.000000 1.000000
vn 0.000000 0.000000 1.000000
vn 0.000000 0.000000 1.000000
vn -0.000000 0.000000 1.000000
vn 0.000000 0.000000 1.000000
vn 0.000000 0.000000 1.000000
vn 0.000000 0.000000 1.000000
vn -0.857178 0.515021 0.000000
vn -0.857178 0.515021 0.000000
vn 0.000000 0.000000 -1.000000
vn 0.000000 0.000000 -1.000000
vn 0.795412 -0.606070 0.000000
vn 0.816647 -0.577138 0.000000
vn 0.816647 -0.577138 0.000000
vn 0.795412 -0.606070 0.000000
vn 0.836829 -0.547465 0.000000
vn 0.836829 -0.547465 0.000000
vn 0.855933 -0.517087 0.000000
vn 0.855933 -0.517087 0.000000
vn 0.873935 -0.486042 0.000000
vn 0.873935 -0.486042 0.000000
vn 0.779815 -0.626011 0.000000
vn 0.779815 -0.626011 0.000000
vn 0.000000 0.000000 1.000000
vn 0.000000 0.000000 1.000000
vn -0.812156 0.583440 0.000000
vn -0.812156 0.583440 0.000000
vn 0.000000 0.000000 -1.000000
vn 0.000000 0.000000 -1.000000
vn 0.000000 0.000000 -1.000000
vn 0.000000 0.000000 -1.000000
vn 0.761642 -0.647998 0.000000
vn 0.761642 -0.647998 0.000000
vn 0.000000 0.000000 1.000000
vn 0.000000 0.000000 1.000000
vn -0.787582 0.616210 0.000000
vn -0.787582 0.616210 0.000000
vn -0.616210 -0.787582 0.000000
vn -0.616210 -0.787582 0.000000
vn -0.616210 -0.787582 0.000000
vn -0.616210 -0.787582 0.000000
s 1
f 1/28/1 2/27/2 3/15/3 4/14/4
s 2
f 2/27/5 1/28/6 5/25/7 6/26/8
f 5/25/7 1/28/6 7/29/9
s 1
f 7/29/10 1/28/1 4/14/4 8/13/11
s 3
f 8/13/12 4/14/13 9/17/14
f 9/17/14 4/14/13 3/15/15 10/16/16
s off
f 10/16/17 3/15/18 2/27/19 6/26/20
s 4
f 10/16/21 6/26/22 5/25/23 9/17/24
f 9/17/24 5/25/23 11/24/25 12/18/26
s 2
f 11/24/27 5/25/7 13/33/28 14/34/29
f 13/33/28 5/25/7 15/32/30
f 15/32/30 5/25/7 16/31/31
f 16/31/31 5/25/7 17/30/32
f 17/30/32 5/25/7 7/29/9
s 1
f 17/30/33 7/29/10 8/13/11 18/12/34
s 3
f 18/12/35 8/13/12 9/17/14
f 18/12/35 9/17/14 19/11/36
f 19/11/36 9/17/14 20/10/37
f 20/10/37 9/17/14 21/9/38
f 21/9/38 9/17/14 12/18/39 22/8/40
f 22/8/40 12/18/39 23/19/41 24/7/42
s 4
f 23/19/43 12/18/26 11/24/25 25/23/44
s 2
f 25/23/45 11/24/27 14/34/29 26/21/46
s 1
f 26/21/47 14/34/48 22/8/49 24/7/50
f 22/8/49 14/34/48 13/33/51 21/9/52
f 21/9/52 13/33/51 15/32/53 20/10/54
f 20/10/54 15/32/53 16/31/55 19/11/56
f 19/11/56 16/31/55 17/30/33 18/12/34
f 26/21/47 24/7/50 27/4/57 28/3/58
s 3
f 27/4/59 24/7/42 23/19/41 29/20/60
s 4
f 29/20/61 23/19/43 25/23/44 30/22/62
s 2
f 30/22/63 25/23/45 26/21/46 28/3/64
f 30/22/63 28/3/64 31/2/65 32/6/66
s 1
f 31/2/67 28/3/58 27/4/57 33/1/68
s 3
f 33/1/69 27/4/59 29/20/60 34/5/70
s 4
f 34/5/71 29/20/61 30/22/62 32/6/72
s off
f 34/5/73 32/6/74 31/2/75 33/1/76
