# This file uses centimeters as units for non-parametric coordinates.

v -2.587704 2.239859 0.500000
v -2.656760 2.238990 0.500000
v -2.656760 2.238990 -0.500000
v -2.587704 2.239859 -0.500000
v -2.427775 2.969209 0.500000
v -2.656290 2.969356 0.500000
v -2.518649 2.240729 0.500000
v -2.518649 2.240729 -0.500000
v -2.427775 2.969209 -0.500000
v -2.656290 2.969356 -0.500000
v -2.181413 2.969051 0.500000
v -2.181413 2.969051 -0.500000
v -2.081297 2.246233 0.500000
v -1.966205 2.247682 0.500000
v -2.196390 2.244785 0.500000
v -2.311482 2.243336 0.500000
v -2.426575 2.241888 0.500000
v -2.426575 2.241888 -0.500000
v -2.311482 2.243336 -0.500000
v -2.196390 2.244785 -0.500000
v -2.081297 2.246233 -0.500000
v -1.966205 2.247682 -0.500000
v -1.943255 2.968898 -0.500000
v -1.851112 2.249131 -0.500000
v -1.943255 2.968898 0.500000
v -1.851112 2.249131 0.500000
v -1.736020 2.250580 -0.500000
v -1.736020 2.250580 0.500000
v -1.735557 2.968765 -0.500000
v -1.735557 2.968765 0.500000
vt 0.248464 0.002907
vt 0.248464 0.002907
vt 0.231788 0.002704
vt 0.231788 0.002704
vt 0.248531 0.103552
vt 0.248531 0.103552
vt 0.215112 0.002501
vt 0.198435 0.002298
vt 0.181759 0.002095
vt 0.165083 0.001892
vt 0.148407 0.001689
vt 0.135065 0.001526
vt 0.125060 0.001404
vt 0.115054 0.001283
vt 0.115122 0.103635
vt 0.148233 0.103614
vt 0.183929 0.103592
vt 0.218437 0.103571
vt 0.215112 0.002501
vt 0.218437 0.103571
vt 0.183929 0.103592
vt 0.148233 0.103614
vt 0.115122 0.103635
vt 0.115054 0.001283
vt 0.125060 0.001404
vt 0.135065 0.001526
vt 0.148407 0.001689
vt 0.165083 0.001892
vt 0.181759 0.002095
vt 0.198435 0.002298
vn 0.012587 -0.999921 0.000000
vn 0.012587 -0.999921 0.000000
vn 0.012587 -0.999921 0.000000
vn 0.012587 -0.999921 0.000000
vn 0.000000 0.000000 1.000000
vn 0.000000 0.000000 1.000000
vn 0.000000 0.000000 1.000000
vn 0.000000 0.000000 1.000000
vn 0.000000 0.000000 1.000000
vn 0.012587 -0.999921 0.000000
vn 0.012587 -0.999921 0.000000
vn 0.000000 0.000000 -1.000000
vn 0.000000 0.000000 -1.000000
vn 0.000000 0.000000 -1.000000
vn 0.000000 0.000000 -1.000000
vn 0.000000 0.000000 -1.000000
vn -1.000000 0.000644 0.000000
vn -1.000000 0.000644 0.000000
vn -1.000000 0.000644 0.000000
vn -1.000000 0.000644 0.000000
vn 0.000643 1.000000 0.000000
vn 0.000643 1.000000 0.000000
vn 0.000643 1.000000 0.000000
vn 0.000643 1.000000 0.000000
vn 0.000642 1.000000 0.000000
vn 0.000642 1.000000 0.000000
vn 0.000000 0.000000 1.000000
vn 0.000000 0.000000 1.000000
vn 0.000000 0.000000 1.000000
vn 0.000000 0.000000 1.000000
vn 0.000000 0.000000 1.000000
vn 0.000000 0.000000 1.000000
vn 0.012586 -0.999921 0.000000
vn 0.012586 -0.999921 0.000000
vn 0.000000 0.000000 -1.000000
vn 0.000000 0.000000 -1.000000
vn 0.000000 0.000000 -1.000000
vn 0.000000 0.000000 -1.000000
vn 0.000000 0.000000 -1.000000
vn 0.000000 0.000000 -1.000000
vn 0.000000 0.000000 -1.000000
vn 0.000000 0.000000 -1.000000
vn 0.000642 1.000000 0.000000
vn 0.000642 1.000000 0.000000
vn 0.000000 0.000000 1.000000
vn 0.000000 0.000000 1.000000
vn 0.012587 -0.999921 0.000000
vn 0.012588 -0.999921 0.000000
vn 0.012588 -0.999921 0.000000
vn 0.012587 -0.999921 0.000000
vn 0.012587 -0.999921 0.000000
vn 0.012587 -0.999921 0.000000
vn 0.012586 -0.999921 0.000000
vn 0.012586 -0.999921 0.000000
vn 0.012586 -0.999921 0.000000
vn 0.012586 -0.999921 0.000000
vn 0.012586 -0.999921 0.000000
vn 0.012586 -0.999921 0.000000
vn 0.000000 0.000000 -1.000000
vn 0.000000 0.000000 -1.000000
vn 0.000643 1.000000 0.000000
vn 0.000643 1.000000 0.000000
vn 0.000000 0.000000 1.000000
vn 0.000000 0.000000 1.000000
vn 1.000000 -0.000644 0.000000
vn 1.000000 -0.000644 0.000000
vn 1.000000 -0.000644 0.000000
vn 1.000000 -0.000644 0.000000
s 1
f 1/25/1 2/24/2 3/14/3 4/13/4
s 2
f 2/24/5 1/25/6 5/22/7 6/23/8
f 5/22/7 1/25/6 7/26/9
s 1
f 7/26/10 1/25/1 4/13/4 8/12/11
s 3
f 8/12/12 4/13/13 9/16/14
f 9/16/14 4/13/13 3/14/15 10/15/16
s off
f 10/15/17 3/14/18 2/24/19 6/23/20
s 4
f 10/15/21 6/23/22 5/22/23 9/16/24
f 9/16/24 5/22/23 11/21/25 12/17/26
s 2
f 11/21/27 5/22/7 13/30/28 14/19/29
f 13/30/28 5/22/7 15/29/30
f 15/29/30 5/22/7 16/28/31
f 16/28/31 5/22/7 17/27/32
f 17/27/32 5/22/7 7/26/9
s 1
f 17/27/33 7/26/10 8/12/11 18/11/34
s 3
f 18/11/35 8/12/12 9/16/14
f 18/11/35 9/16/14 19/10/36
f 19/10/36 9/16/14 20/9/37
f 20/9/37 9/16/14 21/8/38
f 21/8/38 9/16/14 12/17/39 22/7/40
f 22/7/40 12/17/39 23/18/41 24/4/42
s 4
f 23/18/43 12/17/26 11/21/25 25/20/44
s 2
f 25/20/45 11/21/27 14/19/29 26/3/46
s 1
f 26/3/47 14/19/48 22/7/49 24/4/50
f 22/7/49 14/19/48 13/30/51 21/8/52
f 21/8/52 13/30/51 15/29/53 20/9/54
f 20/9/54 15/29/53 16/28/55 19/10/56
f 19/10/56 16/28/55 17/27/33 18/11/34
f 26/3/47 24/4/50 27/1/57 28/2/58
s 3
f 27/1/59 24/4/42 23/18/41 29/5/60
s 4
f 29/5/61 23/18/43 25/20/44 30/6/62
s 2
f 30/6/63 25/20/45 26/3/46 28/2/64
s off
f 30/6/65 28/2/66 27/1/67 29/5/68
