# This file uses centimeters as units for non-parametric coordinates.

v -1.937177 8.776439 0.500000
v -1.853113 8.834514 0.500000
v -1.853113 8.834514 -0.500000
v -1.937177 8.776439 -0.500000
v -1.933068 7.837569 0.500000
v -1.824071 7.978344 0.500000
v -1.824140 8.077206 0.500000
v -1.825131 8.179106 0.500000
v -1.826414 8.288812 0.500000
v -1.827920 8.401188 0.500000
v -1.829586 8.511099 0.500000
v -1.833127 8.702984 0.500000
v -2.068442 8.681487 0.500000
v -2.068442 8.681487 -0.500000
v -1.933068 7.837569 -0.500000
v -1.833127 8.702984 -0.500000
v -1.829586 8.511099 -0.500000
v -1.827920 8.401188 -0.500000
v -1.826414 8.288812 -0.500000
v -1.825131 8.179106 -0.500000
v -1.824140 8.077206 -0.500000
v -1.824071 7.978344 -0.500000
v -1.997607 7.770448 0.500000
v -1.997607 7.770448 -0.500000
v -2.548988 8.260588 0.500000
v -2.615282 8.185882 0.500000
v -2.480583 8.333367 0.500000
v -2.410124 8.404160 0.500000
v -2.289513 8.510378 0.500000
v -2.217501 8.568156 0.500000
v -2.142585 8.625963 0.500000
v -2.142585 8.625963 -0.500000
v -2.217501 8.568156 -0.500000
v -2.289513 8.510378 -0.500000
v -2.410124 8.404160 -0.500000
v -2.480583 8.333367 -0.500000
v -2.548988 8.260588 -0.500000
v -2.615282 8.185882 -0.500000
v -2.059717 7.701073 -0.500000
v -2.679411 8.109308 -0.500000
v -2.059717 7.701073 0.500000
v -2.679411 8.109308 0.500000
v -2.741323 8.030931 -0.500000
v -2.741323 8.030931 0.500000
v -2.119317 7.629531 -0.500000
v -2.119317 7.629531 0.500000
v -2.800966 7.950815 0.500000
v -2.176334 7.555913 0.500000
v -2.800966 7.950815 -0.500000
v -2.176334 7.555913 -0.500000
v -2.230695 7.480313 0.500000
v -2.230695 7.480313 -0.500000
v -2.829136 7.910623 0.500000
v -2.829136 7.910623 -0.500000
vt 0.090077 0.796096
vt 0.090077 0.796096
vt 0.094159 0.801728
vt 0.094159 0.801728
vt 0.176788 0.735793
vt 0.176788 0.735793
vt 0.102801 0.812956
vt 0.111772 0.823939
vt 0.121064 0.834670
vt 0.130669 0.845140
vt 0.140581 0.855339
vt 0.150790 0.865259
vt 0.168266 0.880145
vt 0.178700 0.888242
vt 0.189555 0.896343
vt 0.200298 0.904124
vt 0.219318 0.917430
vt 0.231498 0.925569
vt 0.234394 0.907136
vt 0.234907 0.880246
vt 0.235148 0.864843
vt 0.235367 0.849095
vt 0.235552 0.833721
vt 0.235696 0.819441
vt 0.235706 0.805586
vt 0.219913 0.785858
vt 0.210562 0.776452
vt 0.201562 0.766730
vt 0.192926 0.756704
vt 0.184665 0.746388
vt 0.102801 0.812956
vt 0.184665 0.746388
vt 0.192926 0.756704
vt 0.201562 0.766730
vt 0.210562 0.776452
vt 0.219913 0.785858
vt 0.235706 0.805586
vt 0.235696 0.819441
vt 0.235552 0.833721
vt 0.235367 0.849095
vt 0.235148 0.864843
vt 0.234907 0.880246
vt 0.234394 0.907136
vt 0.231498 0.925569
vt 0.219318 0.917430
vt 0.200298 0.904124
vt 0.189555 0.896343
vt 0.178700 0.888242
vt 0.168266 0.880145
vt 0.150790 0.865259
vt 0.140581 0.855339
vt 0.130669 0.845140
vt 0.121064 0.834670
vt 0.111772 0.823939
vn -0.579282 0.815127 0.000000
vn -0.568396 0.822755 0.000000
vn -0.568396 0.822755 0.000000
vn -0.579282 0.815127 0.000000
vn 0.000000 0.000000 1.000000
vn 0.000000 0.000000 1.000000
vn 0.000000 0.000000 1.000000
vn 0.000000 0.000000 1.000000
vn 0.000000 0.000000 1.000000
vn 0.000000 0.000000 1.000000
vn 0.000000 0.000000 1.000000
vn 0.000000 0.000000 1.000000
vn 0.000000 0.000000 1.000000
vn 0.000000 0.000000 1.000000
vn 0.000000 0.000000 1.000000
vn -0.590962 0.806700 0.000000
vn -0.590962 0.806700 0.000000
vn 0.000000 0.000000 -1.000000
vn 0.000000 0.000000 -1.000000
vn 0.000000 0.000000 -1.000000
vn 0.000000 0.000000 -1.000000
vn 0.000000 0.000000 -1.000000
vn 0.000000 0.000000 -1.000000
vn 0.000000 0.000000 -1.000000
vn 0.000000 0.000000 -1.000000
vn 0.000000 0.000000 -1.000000
vn 0.000000 0.000000 -1.000000
vn 0.000000 0.000000 -1.000000
vn 0.997364 0.072555 0.000000
vn 0.988651 0.150230 0.000000
vn 0.988651 0.150230 0.000000
vn 0.997364 0.072555 0.000000
vn 0.999851 0.017248 0.000000
vn 0.999851 0.017248 0.000000
vn 0.999898 0.014269 0.000000
vn 0.999898 0.014269 0.000000
vn 0.999921 0.012559 0.000000
vn 0.999921 0.012559 0.000000
vn 0.999942 0.010745 0.000000
vn 0.999942 0.010745 0.000000
vn 0.999986 0.005283 0.000000
vn 0.999986 0.005283 0.000000
vn 1.000000 0.000699 0.000000
vn 1.000000 0.000699 0.000000
vn 0.790694 -0.612212 0.000000
vn 0.790694 -0.612212 0.000000
vn 0.767694 -0.640817 0.000000
vn 0.767694 -0.640817 0.000000
vn 0.733056 -0.680168 0.000000
vn 0.733056 -0.680168 0.000000
vn 0.000000 0.000000 1.000000
vn 0.000000 0.000000 1.000000
vn 0.000000 0.000000 1.000000
vn 0.000000 0.000000 1.000000
vn 0.000000 0.000000 1.000000
vn 0.000000 0.000000 1.000000
vn 0.000000 0.000000 1.000000
vn 0.000000 0.000000 1.000000
vn -0.605240 0.796044 0.000000
vn -0.605240 0.796044 0.000000
vn 0.000000 0.000000 -1.000000
vn 0.000000 0.000000 -1.000000
vn 0.000000 0.000000 -1.000000
vn 0.000000 0.000000 -1.000000
vn 0.000000 0.000000 -1.000000
vn 0.000000 0.000000 -1.000000
vn 0.000000 0.000000 -1.000000
vn 0.000000 0.000000 -1.000000
vn 0.000000 0.000000 -1.000000
vn 0.000000 0.000000 -1.000000
vn 0.756800 -0.653646 0.000000
vn 0.756800 -0.653646 0.000000
vn 0.000000 0.000000 1.000000
vn 0.000000 0.000000 1.000000
vn -0.775761 0.631027 0.000000
vn -0.757386 0.652968 0.000000
vn -0.757386 0.652968 0.000000
vn -0.775761 0.631027 0.000000
vn -0.738391 0.674372 0.000000
vn -0.738391 0.674372 0.000000
vn -0.718793 0.695224 0.000000
vn -0.718793 0.695224 0.000000
vn -0.679602 0.733581 0.000000
vn -0.679602 0.733581 0.000000
vn -0.648261 0.761418 0.000000
vn -0.648261 0.761418 0.000000
vn -0.618291 0.785949 0.000000
vn -0.618291 0.785949 0.000000
vn -0.793501 0.608569 0.000000
vn -0.793501 0.608569 0.000000
vn 0.000000 0.000000 -1.000000
vn 0.000000 0.000000 -1.000000
vn 0.779584 -0.626297 0.000000
vn 0.779584 -0.626297 0.000000
vn 0.000000 0.000000 1.000000
vn 0.000000 0.000000 1.000000
vn 0.000000 0.000000 1.000000
vn 0.000000 0.000000 1.000000
vn -0.807725 0.589560 0.000000
vn -0.807725 0.589560 0.000000
vn 0.000000 0.000000 -1.000000
vn 0.000000 0.000000 -1.000000
vn 0.801380 -0.598156 0.000000
vn 0.801380 -0.598156 0.000000
vn 0.811900 -0.583797 0.000000
vn 0.811900 -0.583797 0.000000
vn 0.000000 0.000000 1.000000
vn 0.000000 0.000000 1.000000
vn -0.818891 0.573949 0.000000
vn -0.818891 0.573949 0.000000
vn 0.000000 0.000000 -1.000000
vn 0.000000 0.000000 -1.000000
vn -0.583797 -0.811900 0.000000
vn -0.583797 -0.811900 0.000000
vn -0.583797 -0.811900 0.000000
vn -0.583797 -0.811900 0.000000
s 1
f 1/45/1 2/44/2 3/18/3 4/17/4
s 2
f 2/44/5 1/45/6 5/36/7 6/37/8 7/38/9 8/39/10 9/40/11 10/41/12 11/42/13 12/43/14
f 5/36/7 1/45/6 13/46/15
s 1
f 13/46/16 1/45/1 4/17/4 14/16/17
s 3
f 14/16/18 4/17/19 15/26/20
f 15/26/20 4/17/19 3/18/21 16/19/22 17/20/23 18/21/24 19/22/25 20/23/26 21/24/27 22/25/28
s 4
f 16/19/29 3/18/30 2/44/31 12/43/32
f 16/19/29 12/43/32 11/42/33 17/20/34
f 17/20/34 11/42/33 10/41/35 18/21/36
f 18/21/36 10/41/35 9/40/37 19/22/38
f 19/22/38 9/40/37 8/39/39 20/23/40
f 20/23/40 8/39/39 7/38/41 21/24/42
f 21/24/42 7/38/41 6/37/43 22/25/44
s 5
f 22/25/45 6/37/46 5/36/47 15/26/48
f 15/26/48 5/36/47 23/35/49 24/27/50
s 2
f 23/35/51 5/36/7 25/52/52 26/53/53
f 25/52/52 5/36/7 27/51/54
f 27/51/54 5/36/7 28/50/55
f 28/50/55 5/36/7 29/49/56
f 29/49/56 5/36/7 30/48/57
f 30/48/57 5/36/7 31/47/58
f 31/47/58 5/36/7 13/46/15
s 1
f 31/47/59 13/46/16 14/16/17 32/15/60
s 3
f 32/15/61 14/16/18 15/26/20
f 32/15/61 15/26/20 33/14/62
f 33/14/62 15/26/20 34/13/63
f 34/13/63 15/26/20 35/12/64
f 35/12/64 15/26/20 36/11/65
f 36/11/65 15/26/20 37/10/66
f 37/10/66 15/26/20 24/27/67 38/9/68
f 38/9/68 24/27/67 39/28/69 40/8/70
s 5
f 39/28/71 24/27/50 23/35/49 41/34/72
s 2
f 41/34/73 23/35/51 26/53/53 42/54/74
s 1
f 42/54/75 26/53/76 38/9/77 40/8/78
f 38/9/77 26/53/76 25/52/79 37/10/80
f 37/10/80 25/52/79 27/51/81 36/11/82
f 36/11/82 27/51/81 28/50/83 35/12/84
f 35/12/84 28/50/83 29/49/85 34/13/86
f 34/13/86 29/49/85 30/48/87 33/14/88
f 33/14/88 30/48/87 31/47/59 32/15/60
f 42/54/75 40/8/78 43/7/89 44/31/90
s 3
f 43/7/91 40/8/70 39/28/69 45/29/92
s 5
f 45/29/93 39/28/71 41/34/72 46/33/94
s 2
f 46/33/95 41/34/73 42/54/74 44/31/96
f 46/33/95 44/31/96 47/3/97 48/32/98
s 1
f 47/3/99 44/31/90 43/7/89 49/4/100
s 3
f 49/4/101 43/7/91 45/29/92 50/30/102
s 5
f 50/30/103 45/29/93 46/33/94 48/32/104
f 50/30/103 48/32/104 51/6/105 52/5/106
s 2
f 51/6/107 48/32/98 47/3/97 53/2/108
s 1
f 53/2/109 47/3/99 49/4/100 54/1/110
s 3
f 54/1/111 49/4/101 50/30/102 52/5/112
s off
f 54/1/113 52/5/114 51/6/115 53/2/116
