# This file uses centimeters as units for non-parametric coordinates.

v -3.450811 4.349307 0.500000
v -3.450811 5.002712 0.500000
v -3.450811 5.002712 -0.500000
v -3.450811 4.349307 -0.500000
v -2.711104 4.349307 0.500000
v -2.710988 5.002712 0.500000
v -2.711104 4.349307 -0.500000
v -2.710988 5.002712 -0.500000
vt 0.000000 0.297019
vt 0.000000 0.297019
vt 0.000000 0.388586
vt 0.000000 0.388586
vt 0.107180 0.297019
vt 0.107180 0.297019
vt 0.107197 0.388586
vt 0.107197 0.388586
vn -1.000000 0.000000 0.000000
vn -1.000000 0.000000 0.000000
vn -1.000000 0.000000 0.000000
vn -1.000000 0.000000 0.000000
vn 0.000000 0.000000 1.000000
vn 0.000000 0.000000 1.000000
vn 0.000000 0.000000 1.000000
vn 0.000000 0.000000 1.000000
vn 0.000000 -1.000000 0.000000
vn 0.000000 -1.000000 0.000000
vn 0.000000 -1.000000 0.000000
vn 0.000000 -1.000000 0.000000
vn 0.000000 0.000000 -1.000000
vn 0.000000 0.000000 -1.000000
vn 0.000000 0.000000 -1.000000
vn 0.000000 0.000000 -1.000000
vn 0.000000 1.000000 0.000000
vn 0.000000 1.000000 0.000000
vn 0.000000 1.000000 0.000000
vn 0.000000 1.000000 0.000000
vn 1.000000 -0.000178 0.000000
vn 1.000000 -0.000178 0.000000
vn 1.000000 -0.000178 0.000000
vn 1.000000 -0.000178 0.000000
s off
f 1/2/1 2/3/2 3/4/3 4/1/4
f 2/3/5 1/2/6 5/6/7 6/8/8
f 5/6/9 1/2/10 4/1/11 7/5/12
f 7/5/13 4/1/14 3/4/15 8/7/16
f 8/7/17 3/4/18 2/3/19 6/8/20
f 8/7/21 6/8/22 5/6/23 7/5/24
