# This file uses centimeters as units for non-parametric coordinates.

v -3.450811 4.325053 0.500000
v -3.450811 4.349307 0.500000
v -3.450811 4.349307 -0.500000
v -3.450811 4.325053 -0.500000
v -2.711020 4.192868 0.500000
v -2.711104 4.349307 0.500000
v -3.450811 4.132730 0.500000
v -3.450811 4.132730 -0.500000
v -2.711020 4.192868 -0.500000
v -2.711104 4.349307 -0.500000
v -2.710942 4.045597 0.500000
v -2.710942 4.045597 -0.500000
v -3.450811 3.986213 0.500000
v -3.450811 3.986213 -0.500000
v -2.710852 3.876827 -0.500000
v -3.450811 3.823067 -0.500000
v -2.710852 3.876827 0.500000
v -3.450811 3.823067 0.500000
v -3.450811 3.695900 -0.500000
v -3.450811 3.695900 0.500000
v -2.710755 3.695901 -0.500000
v -2.710755 3.695901 0.500000
vt 0.000000 0.205452
vt 0.000000 0.205452
vt 0.000000 0.223273
vt 0.000000 0.223273
vt 0.107230 0.205452
vt 0.107230 0.205452
vt 0.000000 0.246136
vt 0.000000 0.266668
vt 0.000000 0.293620
vt 0.000000 0.297019
vt 0.107180 0.297019
vt 0.107192 0.275096
vt 0.107203 0.254458
vt 0.107216 0.230806
vt 0.000000 0.246136
vt 0.107216 0.230806
vt 0.107203 0.254458
vt 0.107192 0.275096
vt 0.107180 0.297019
vt 0.000000 0.297019
vt 0.000000 0.293620
vt 0.000000 0.266668
vn -1.000000 0.000000 0.000000
vn -1.000000 0.000000 0.000000
vn -1.000000 0.000000 0.000000
vn -1.000000 0.000000 0.000000
vn 0.000000 0.000000 1.000000
vn 0.000000 0.000000 1.000000
vn 0.000000 0.000000 1.000000
vn 0.000000 0.000000 1.000000
vn 0.000000 0.000000 1.000000
vn -1.000000 0.000000 0.000000
vn -1.000000 0.000000 0.000000
vn 0.000000 0.000000 -1.000000
vn 0.000000 0.000000 -1.000000
vn 0.000000 0.000000 -1.000000
vn 0.000000 0.000000 -1.000000
vn 0.000000 0.000000 -1.000000
vn 0.000000 1.000000 0.000000
vn 0.000000 1.000000 0.000000
vn 0.000000 1.000000 0.000000
vn 0.000000 1.000000 0.000000
vn 1.000000 0.000533 0.000000
vn 1.000000 0.000533 0.000000
vn 1.000000 0.000533 0.000000
vn 1.000000 0.000533 0.000000
vn 1.000000 0.000533 0.000000
vn 1.000000 0.000533 0.000000
vn 0.000000 0.000000 1.000000
vn 0.000000 0.000000 1.000000
vn -1.000000 0.000000 0.000000
vn -1.000000 0.000000 0.000000
vn 0.000000 0.000000 -1.000000
vn 0.000000 0.000000 -1.000000
vn 0.000000 0.000000 -1.000000
vn 0.000000 0.000000 -1.000000
vn 1.000000 0.000533 0.000000
vn 1.000000 0.000533 0.000000
vn 0.000000 0.000000 1.000000
vn 0.000000 0.000000 1.000000
vn -1.000000 0.000000 0.000000
vn -1.000000 0.000000 0.000000
vn -1.000000 0.000000 0.000000
vn -1.000000 0.000000 0.000000
vn 0.000000 0.000000 -1.000000
vn 0.000000 0.000000 -1.000000
vn 1.000000 0.000532 0.000000
vn 1.000000 0.000532 0.000000
vn 0.000000 0.000000 1.000000
vn 0.000000 0.000000 1.000000
vn 0.000001 -1.000000 0.000000
vn 0.000001 -1.000000 0.000000
vn 0.000001 -1.000000 0.000000
vn 0.000001 -1.000000 0.000000
s 1
f 1/21/1 2/20/2 3/10/3 4/9/4
s 2
f 2/20/5 1/21/6 5/18/7 6/19/8
f 5/18/7 1/21/6 7/22/9
s 1
f 7/22/10 1/21/1 4/9/4 8/8/11
s 3
f 8/8/12 4/9/13 9/12/14
f 9/12/14 4/9/13 3/10/15 10/11/16
s off
f 10/11/17 3/10/18 2/20/19 6/19/20
s 4
f 10/11/21 6/19/22 5/18/23 9/12/24
f 9/12/24 5/18/23 11/17/25 12/13/26
s 2
f 11/17/27 5/18/7 7/22/9 13/15/28
s 1
f 13/15/29 7/22/10 8/8/11 14/7/30
s 3
f 14/7/31 8/8/12 9/12/14 12/13/32
f 14/7/31 12/13/32 15/14/33 16/4/34
s 4
f 15/14/35 12/13/26 11/17/25 17/16/36
s 2
f 17/16/37 11/17/27 13/15/28 18/3/38
s 1
f 18/3/39 13/15/29 14/7/30 16/4/40
f 18/3/39 16/4/40 19/1/41 20/2/42
s 3
f 19/1/43 16/4/34 15/14/33 21/5/44
s 4
f 21/5/45 15/14/35 17/16/36 22/6/46
s 2
f 22/6/47 17/16/37 18/3/38 20/2/48
s off
f 22/6/49 20/2/50 19/1/51 21/5/52
