# This file uses centimeters as units for non-parametric coordinates.

v -3.450811 3.592458 0.500000
v -3.450811 3.695900 0.500000
v -3.450811 3.695900 -0.500000
v -3.450811 3.592458 -0.500000
v -2.710629 3.594325 0.500000
v -2.710755 3.695901 0.500000
v -3.450811 3.478770 0.500000
v -2.710491 3.483721 0.500000
v -3.450811 3.478770 -0.500000
v -2.710629 3.594325 -0.500000
v -2.710491 3.483721 -0.500000
v -2.710755 3.695901 -0.500000
v -2.710349 3.369198 0.500000
v -2.710349 3.369198 -0.500000
v -3.450811 3.369198 0.500000
v -3.450811 3.369198 -0.500000
v -2.710214 3.260744 -0.500000
v -3.450811 3.256241 -0.500000
v -2.710214 3.260744 0.500000
v -3.450811 3.256241 0.500000
v -3.450811 3.131941 -0.500000
v -3.450811 3.131941 0.500000
v -2.710078 3.151620 -0.500000
v -2.710078 3.151620 0.500000
v -3.450811 3.042496 0.500000
v -2.709943 3.042495 0.500000
v -3.450811 3.042496 -0.500000
v -2.709943 3.042495 -0.500000
vt 0.000000 0.113885
vt 0.000000 0.113885
vt 0.000000 0.126419
vt 0.000000 0.126419
vt 0.107348 0.113885
vt 0.107348 0.113885
vt 0.000000 0.143839
vt 0.000000 0.159668
vt 0.000000 0.175023
vt 0.000000 0.190955
vt 0.000000 0.205452
vt 0.107230 0.205452
vt 0.107249 0.191217
vt 0.107268 0.175717
vt 0.107289 0.159668
vt 0.107309 0.144470
vt 0.107328 0.129177
vt 0.000000 0.143839
vt 0.107328 0.129177
vt 0.107309 0.144470
vt 0.107289 0.159668
vt 0.107268 0.175717
vt 0.107249 0.191217
vt 0.107230 0.205452
vt 0.000000 0.205452
vt 0.000000 0.190955
vt 0.000000 0.175023
vt 0.000000 0.159668
vn -1.000000 0.000000 0.000000
vn -1.000000 0.000000 0.000000
vn -1.000000 0.000000 0.000000
vn -1.000000 0.000000 0.000000
vn 0.000000 0.000000 1.000000
vn 0.000000 0.000000 1.000000
vn 0.000000 0.000000 1.000000
vn 0.000000 0.000000 1.000000
vn 0.000000 0.000000 1.000000
vn 0.000000 0.000000 1.000000
vn -1.000000 0.000000 0.000000
vn -1.000000 0.000000 0.000000
vn 0.000000 0.000000 -1.000000
vn 0.000000 0.000000 -1.000000
vn 0.000000 0.000000 -1.000000
vn 0.000000 0.000000 -1.000000
vn 0.000000 0.000000 -1.000000
vn 0.000000 0.000000 -1.000000
vn -0.000001 1.000000 0.000000
vn -0.000001 1.000000 0.000000
vn -0.000001 1.000000 0.000000
vn -0.000001 1.000000 0.000000
vn 0.999999 0.001244 0.000000
vn 0.999999 0.001244 0.000000
vn 0.999999 0.001244 0.000000
vn 0.999999 0.001244 0.000000
vn 0.999999 0.001243 0.000000
vn 0.999999 0.001243 0.000000
vn 0.999999 0.001244 0.000000
vn 0.999999 0.001244 0.000000
vn 0.000000 0.000000 1.000000
vn 0.000000 0.000000 1.000000
vn -1.000000 0.000000 0.000000
vn -1.000000 0.000000 0.000000
vn 0.000000 0.000000 -1.000000
vn 0.000000 0.000000 -1.000000
vn 0.000000 0.000000 -1.000000
vn 0.000000 0.000000 -1.000000
vn 0.999999 0.001244 0.000000
vn 0.999999 0.001244 0.000000
vn 0.000000 0.000000 1.000000
vn 0.000000 0.000000 1.000000
vn -1.000000 0.000000 0.000000
vn -1.000000 0.000000 0.000000
vn -1.000000 0.000000 0.000000
vn -1.000000 0.000000 0.000000
vn 0.000000 0.000000 -1.000000
vn 0.000000 0.000000 -1.000000
vn 0.999999 0.001243 0.000000
vn 0.999999 0.001243 0.000000
vn 0.000000 0.000000 1.000000
vn 0.000000 0.000000 1.000000
vn 0.000000 0.000000 1.000000
vn 0.000000 0.000000 1.000000
vn -1.000000 0.000000 0.000000
vn -1.000000 0.000000 0.000000
vn 0.000000 0.000000 -1.000000
vn 0.000000 0.000000 -1.000000
vn 0.999999 0.001243 0.000000
vn 0.999999 0.001243 0.000000
vn -0.000000 -1.000000 0.000000
vn -0.000000 -1.000000 0.000000
vn -0.000000 -1.000000 0.000000
vn -0.000000 -1.000000 0.000000
s 1
f 1/26/1 2/25/2 3/11/3 4/10/4
s 2
f 2/25/5 1/26/6 5/23/7 6/24/8
f 5/23/7 1/26/6 7/27/9 8/22/10
s 1
f 7/27/11 1/26/1 4/10/4 9/9/12
s 3
f 9/9/13 4/10/14 10/13/15 11/14/16
f 10/13/15 4/10/14 3/11/17 12/12/18
s off
f 12/12/19 3/11/20 2/25/21 6/24/22
s 4
f 12/12/23 6/24/24 5/23/25 10/13/26
f 10/13/26 5/23/25 8/22/27 11/14/28
f 11/14/28 8/22/27 13/21/29 14/15/30
s 2
f 13/21/31 8/22/10 7/27/9 15/28/32
s 1
f 15/28/33 7/27/11 9/9/12 16/8/34
s 3
f 16/8/35 9/9/13 11/14/16 14/15/36
f 16/8/35 14/15/36 17/16/37 18/7/38
s 4
f 17/16/39 14/15/30 13/21/29 19/20/40
s 2
f 19/20/41 13/21/31 15/28/32 20/18/42
s 1
f 20/18/43 15/28/33 16/8/34 18/7/44
f 20/18/43 18/7/44 21/4/45 22/3/46
s 3
f 21/4/47 18/7/38 17/16/37 23/17/48
s 4
f 23/17/49 17/16/39 19/20/40 24/19/50
s 2
f 24/19/51 19/20/41 20/18/42 22/3/52
f 24/19/51 22/3/52 25/2/53 26/6/54
s 1
f 25/2/55 22/3/46 21/4/45 27/1/56
s 3
f 27/1/57 21/4/47 23/17/48 28/5/58
s 4
f 28/5/59 23/17/49 24/19/50 26/6/60
s off
f 28/5/61 26/6/62 25/2/63 27/1/64
