# This file uses centimeters as units for non-parametric coordinates.

v 0.282500 9.458000 0.082500
v -0.463861 9.458000 0.082500
v -0.463861 1.044813 0.082500
v 0.282500 1.044813 0.082500
v 0.282500 9.458000 0.583500
v -0.463861 9.458000 0.583500
v -0.463861 1.044813 0.583500
v 0.282500 1.044813 0.583500
v -0.137415 9.458000 0.378746
v -0.043947 9.458000 0.378746
v -0.043947 9.458000 0.287254
v -0.137415 9.458000 0.287254
v -0.137415 1.044813 0.378746
v -0.043947 1.044813 0.378746
v -0.137415 1.044813 0.287254
v -0.043947 1.044813 0.287254
v -0.137415 10.092020 0.378746
v -0.043947 10.092020 0.378746
v -0.043947 10.092020 0.287254
v -0.137415 10.092020 0.287254
v -0.137415 0.000020 0.378746
v -0.043947 0.000020 0.378746
v -0.137415 0.000020 0.287254
v -0.043947 0.000020 0.287254
vt 0.000703 0.914384
vt 0.000703 0.085616
vt 0.999296 0.085616
vt 0.999296 0.914384
vt 0.999296 0.085616
vt 0.999296 0.914384
vt 0.000703 0.914384
vt 0.000703 0.085616
vt 0.371277 0.997804
vt 0.371277 0.923103
vt 0.532624 0.997804
vt 0.532624 0.923103
vt 0.572514 0.923103
vt 0.572514 0.997804
vt 0.661387 0.923103
vt 0.661387 0.997804
vt 0.003127 0.106055
vt 0.996875 0.106055
vt 0.996873 0.934823
vt 0.003126 0.934823
vt 0.996873 0.934823
vt 0.003127 0.934823
vt 0.003127 0.106055
vt 0.996873 0.106055
vt 0.532624 0.923103
vt 0.371277 0.923103
vt 0.371277 0.997804
vt 0.532624 0.997804
vt 0.661387 0.997804
vt 0.572514 0.997804
vt 0.572514 0.923103
vt 0.661387 0.923103
vt 0.532624 0.923103
vt 0.371277 0.923103
vt 0.371277 0.997804
vt 0.532624 0.997804
vt 0.661387 0.997804
vt 0.572514 0.997804
vt 0.572514 0.923103
vt 0.661387 0.923103
vn 0.000000 1.000000 0.000000
vn 0.000000 1.000000 0.000000
vn 0.000000 1.000000 0.000000
vn 0.000000 1.000000 0.000000
vn -1.000000 0.000000 0.000000
vn -1.000000 0.000000 0.000000
vn -1.000000 0.000000 0.000000
vn -1.000000 0.000000 0.000000
vn 0.000000 -1.000000 0.000000
vn 0.000000 -1.000000 0.000000
vn 0.000000 -1.000000 0.000000
vn 0.000000 -1.000000 0.000000
vn 1.000000 0.000000 0.000000
vn 1.000000 0.000000 0.000000
vn 1.000000 0.000000 0.000000
vn 1.000000 0.000000 0.000000
vn 0.000000 0.000000 -1.000000
vn 0.000000 0.000000 -1.000000
vn 0.000000 0.000000 -1.000000
vn 0.000000 0.000000 -1.000000
vn 0.000000 0.000000 1.000000
vn 0.000000 0.000000 1.000000
vn 0.000000 0.000000 1.000000
vn 0.000000 0.000000 1.000000
vn 0.000000 1.000000 0.000001
vn 0.000000 1.000000 0.000001
vn 0.000000 1.000000 0.000001
vn 0.000000 1.000000 0.000001
vn 0.000000 1.000000 -0.000001
vn 0.000000 1.000000 -0.000001
vn 0.000000 1.000000 -0.000001
vn 0.000000 1.000000 -0.000001
vn 0.000000 -1.000000 -0.000000
vn 0.000000 -1.000000 -0.000000
vn 0.000000 -1.000000 -0.000000
vn 0.000000 -1.000000 -0.000000
vn 0.000000 -1.000000 0.000000
vn 0.000000 -1.000000 0.000000
vn 0.000000 -1.000000 0.000000
vn 0.000000 -1.000000 0.000000
vn 0.000000 0.000000 1.000000
vn 0.000000 0.000000 1.000000
vn 0.000000 0.000000 1.000000
vn 0.000000 0.000000 1.000000
vn 1.000000 0.000000 0.000000
vn 1.000000 0.000000 0.000000
vn 1.000000 0.000000 0.000000
vn 1.000000 0.000000 0.000000
vn 0.000000 0.000000 -1.000000
vn 0.000000 0.000000 -1.000000
vn 0.000000 0.000000 -1.000000
vn 0.000000 0.000000 -1.000000
vn -1.000000 0.000000 0.000000
vn -1.000000 0.000000 0.000000
vn -1.000000 0.000000 0.000000
vn -1.000000 0.000000 0.000000
vn 0.000000 0.000000 1.000000
vn 0.000000 0.000000 1.000000
vn 0.000000 0.000000 1.000000
vn 0.000000 0.000000 1.000000
vn -1.000000 0.000000 0.000000
vn -1.000000 0.000000 0.000000
vn -1.000000 0.000000 0.000000
vn -1.000000 0.000000 0.000000
vn 0.000000 0.000000 -1.000000
vn 0.000000 0.000000 -1.000000
vn 0.000000 0.000000 -1.000000
vn 0.000000 0.000000 -1.000000
vn 1.000000 0.000000 0.000000
vn 1.000000 0.000000 0.000000
vn 1.000000 0.000000 0.000000
vn 1.000000 0.000000 0.000000
s off
f 17/33/1 18/34/2 19/35/3 20/36/4
f 2/1/5 3/2/6 7/3/7 6/4/8
f 22/37/9 21/38/10 23/39/11 24/40/12
f 4/5/13 1/6/14 5/7/15 8/8/16
f 4/17/17 3/18/18 2/19/19 1/20/20
f 5/21/21 6/22/22 7/23/23 8/24/24
s 1
f 6/12/25 5/10/26 10/26/27 9/25/28
f 5/10/26 1/9/29 11/27/30 10/26/27
f 1/9/29 2/11/31 12/28/32 11/27/30
f 2/11/31 6/12/25 9/25/28 12/28/32
s 2
f 8/16/33 7/14/34 13/30/35 14/29/36
f 7/14/34 3/13/37 15/31/38 13/30/35
f 3/13/37 4/15/39 16/32/40 15/31/38
f 4/15/39 8/16/33 14/29/36 16/32/40
s off
f 9/25/41 10/26/42 18/34/43 17/33/44
f 10/26/45 11/27/46 19/35/47 18/34/48
f 11/27/49 12/28/50 20/36/51 19/35/52
f 12/28/53 9/25/54 17/33/55 20/36/56
f 14/29/57 13/30/58 21/38/59 22/37/60
f 13/30/61 15/31/62 23/39/63 21/38/64
f 15/31/65 16/32/66 24/40/67 23/39/68
f 16/32/69 14/29/70 22/37/71 24/40/72
