<?xml version="1.0" encoding="UTF-8" standalone="no"?>
<svg
   xmlns:dc="http://purl.org/dc/elements/1.1/"
   xmlns:cc="http://creativecommons.org/ns#"
   xmlns:rdf="http://www.w3.org/1999/02/22-rdf-syntax-ns#"
   xmlns:svg="http://www.w3.org/2000/svg"
   xmlns="http://www.w3.org/2000/svg"
   xmlns:sodipodi="http://sodipodi.sourceforge.net/DTD/sodipodi-0.dtd"
   xmlns:inkscape="http://www.inkscape.org/namespaces/inkscape"
   viewBox="0 0 609.64 887.64"
   version="1.1"
   id="svg16"
   sodipodi:docname="Asset 2.svg"
   inkscape:version="0.92.5 (2060ec1f9f, 2020-04-08)">
  <metadata
     id="metadata20">
    <rdf:RDF>
      <cc:Work
         rdf:about="">
        <dc:format>image/svg+xml</dc:format>
        <dc:type
           rdf:resource="http://purl.org/dc/dcmitype/StillImage" />
      </cc:Work>
    </rdf:RDF>
  </metadata>
  <sodipodi:namedview
     pagecolor="#ffffff"
     bordercolor="#666666"
     borderopacity="1"
     objecttolerance="10"
     gridtolerance="10"
     guidetolerance="10"
     inkscape:pageopacity="0"
     inkscape:pageshadow="2"
     inkscape:window-width="1920"
     inkscape:window-height="1017"
     id="namedview18"
     showgrid="false"
     inkscape:zoom="32"
     inkscape:cx="341.74579"
     inkscape:cy="774.28579"
     inkscape:window-x="-8"
     inkscape:window-y="-8"
     inkscape:window-maximized="1"
     inkscape:current-layer="svg16" />
  <defs
     id="defs4">
    <style
       id="style2">.cls-1{fill:#166d4b;}.cls-2{fill:#2da67b;}</style>
  </defs>
  <g
     id="Layer_2"
     data-name="Layer 2">
    <g
       id="Layer_1-2"
       data-name="Layer 1">
      <path
         class="cls-1"
         d="M609.45,363.91a295,295,0,0,1-28.16,125.52,305.66,305.66,0,0,1-63,89.1,301.23,301.23,0,0,1-111.54,69.83c-10.67,3.78-21.65,6.67-32.55,9.78-5,1.42-5.64.81-5.65-4.09,0-19.28.06-38.57-.08-57.85,0-3.69,1.46-5.2,4.84-6.21A239.79,239.79,0,0,0,519.09,466.71c13.4-27.22,21.77-56,23.92-86.33.49-6.78.78-13.57.79-20.37q.08-115.92,0-231.84c0-6.72,0-6.72-6.76-6.72H343.53a15.89,15.89,0,0,0-4.69.35h-1.65V56.36l265.19,0c7.17,0,7.18,0,7.18,7.28C609.56,163.69,609.8,263.8,609.45,363.91Z"
         id="path6" />
      <rect
         class="cls-2"
         x="273.94"
         y="56.31"
         width="66.24"
         height="738.6"
         id="rect8" />
      <path
         class="cls-1"
         d="M0,520.79Q0,444,0,367.17A342.85,342.85,0,0,1,9.72,284a289.61,289.61,0,0,1,28.92-72.25A308.86,308.86,0,0,1,92.4,141.66c14.39-14.11,49.5-38.56,50.78-39,.41,1.41,1.16,52,1.28,75.95,0,3.39-1.55,5.51-3.79,7.62a232.13,232.13,0,0,0-49.23,65.9c-12.29,24.79-20.56,50.81-23.9,78.3a220.93,220.93,0,0,0-1.83,26.2q-.19,130.49-.07,261c0,6.49,0,6.49,6.52,6.5l161.69.1c7.23,0,7.23,0,7.23,7.38q0,26.31,0,52.62c0,5.21-.34,5.53-5.53,5.53H6c-5.77,0-5.93-.16-5.93-6Q0,602.27,0,520.79Z"
         id="path10" />
      <rect
         class="cls-2"
         x="303.05"
         width="8.03"
         height="887.64"
         id="rect12" />
    </g>
  </g>
  <path
     style="fill:#f2f2f2;stroke:none;stroke-width:1.04428232"
     d="m 369.20804,655.65768 c -0.91202,-3.40686 -0.71567,-59.4484 0.21659,-61.81651 0.50922,-1.29353 5.2218,-3.55109 14.41352,-6.9048 43.37119,-15.82449 79.40229,-41.29052 107.19069,-75.76015 21.47538,-26.63878 37.71033,-59.14836 46.13467,-92.38219 6.58176,-25.9649 6.27502,-17.94862 6.27502,-163.98913 V 121.6589 L 441.88207,121.39266 340.32561,121.12642 V 88.758833 56.391248 l 131.84065,0.01426 c 72.51235,0.0078 132.89798,0.297615 134.19028,0.643938 l 2.34964,0.629677 -0.003,160.958757 c -0.002,105.74074 -0.38554,165.07861 -1.11703,172.96801 -2.23215,24.07449 -8.43194,51.07891 -17.18369,74.84702 -5.13026,13.93278 -19.7578,43.41608 -27.99822,56.43325 -34.02688,53.75129 -84.24009,96.02322 -142.19045,119.70285 -12.32573,5.03653 -39.63689,13.81512 -46.29036,14.87906 -3.63716,0.5816 -4.12457,0.39444 -4.71481,-1.81039 z"
     id="path827"
     inkscape:connector-curvature="0" />
  <path
     style="fill:#f2f2f2;stroke:none;stroke-width:1.04428232"
     d="m 0.9338376,516.50827 c 0,-110.23245 0.3872716,-176.63054 1.0704673,-183.53262 6.243826,-63.0791 27.6282061,-115.78757 66.6245981,-164.21707 17.82799,-22.14053 30.473651,-33.76554 60.577557,-55.68823 l 13.22764,-9.63282 0.63874,16.9428 c 0.35131,9.31854 0.70376,26.96482 0.78322,39.21396 l 0.14446,22.27117 -10.73646,11.14587 c -33.972053,35.2675 -55.312617,76.85806 -64.551311,125.80387 -2.107952,11.16775 -2.256582,16.59478 -3.266183,119.26125 -0.6317,64.23765 -0.692684,123.33419 -0.151408,146.72168 l 0.906328,39.16059 86.665284,0.52214 86.66529,0.52214 0.6698,3.13285 c 0.87696,4.10168 1.08405,52.10821 0.24665,57.17446 l -0.64728,3.91605 H 120.36754 0.9338376 Z"
     id="path829"
     inkscape:connector-curvature="0" />
  <path
     style="fill:#ffffff;stroke:none;stroke-width:1.04428232"
     d="M 303.77572,841.16945 V 794.69888 H 289.15577 274.53582 V 425.54507 56.391248 h 14.61995 14.61995 V 28.195624 0 h 3.65499 3.65499 v 28.195624 28.195624 h 14.79037 14.79037 l -0.69135,49.342342 c -0.38024,27.13829 -0.6919,193.25751 -0.69256,369.15382 l -0.001,319.81147 H 325.18351 311.0857 v 46.47057 46.47056 h -3.65499 -3.65499 z"
     id="path831"
     inkscape:connector-curvature="0" />
  <path
     style="fill:#ffffff;stroke:none;stroke-width:0.00815846"
     d="m 339.8314,123.65534 c 0.007,-1.30218 0.0265,-4.47296 0.0376,-6.0597 0.004,-0.63717 0.0118,-1.69818 0.0164,-2.35779 0.005,-0.65961 0.0105,-1.34706 0.0133,-1.52767 l 0.005,-0.32838 h 0.13774 0.13773 v 5.67421 5.6742 h -0.17669 -0.1767 z"
     id="path821"
     inkscape:connector-curvature="0" />
  <path
     style="fill:#a0a0a0;stroke:none;stroke-width:0.00390625"
     d="m 339.85185,120.41234 c 10e-6,-0.0258 6.4e-4,-0.0358 10e-4,-0.0223 7.6e-4,0.0135 7.6e-4,0.0346 -2e-5,0.0469 -7.7e-4,0.0123 -10e-4,10e-4 -10e-4,-0.0246 z"
     id="path823"
     inkscape:connector-curvature="0" />
  <path
     style="fill:#a0a0a0;stroke:none;stroke-width:0.00390625"
     d="m 339.85143,120.41038 c 0,-0.01 7.6e-4,-0.0136 0.002,-0.009 9.3e-4,0.005 9.3e-4,0.0127 0,0.0176 -9.3e-4,0.005 -0.002,8.8e-4 -0.002,-0.009 z"
     id="path825"
     inkscape:connector-curvature="0" />
  <path
     style="fill:#ffffff;stroke:none;stroke-width:0.03125"
     d="m 339.91856,112.01829 c 0.009,-0.73477 0.0304,-2.57344 0.0472,-4.08594 0.0241,-2.16809 0.15094,-11.599069 0.19517,-14.515627 0.005,-0.300781 0.0114,4.062109 0.0153,9.695317 l 0.007,10.24218 h -0.14067 -0.14066 z"
     id="path836"
     inkscape:connector-curvature="0" />
  <path
     style="fill:#ffffff;stroke:none;stroke-width:0.03125"
     d="m 340.18608,104.39329 c 0.002,-11.159156 0.0113,-13.764233 0.0579,-16.773442 l 0.0551,-3.5625 0.005,16.773442 c 0.005,16.75415 0.005,16.77343 -0.0579,16.77343 -0.0624,0 -0.0625,-0.0199 -0.0597,-13.21093 z"
     id="path838"
     inkscape:connector-curvature="0" />
  <path
     style="fill:#ffffff;stroke:none;stroke-width:0.03125"
     d="m 340.18797,119.48704 c 0.003,-1.13008 0.0105,-2.01602 0.0177,-1.96875 0.0178,0.11744 0.0646,0.1083 0.08,-0.0156 0.007,-0.0559 0.0148,0.73695 0.0176,1.76179 l 0.005,1.86335 4.28906,0.0195 c 5.1981,0.0236 27.63906,0.0829 31.15625,0.0824 l 2.52344,-3.9e-4 v 0.10938 0.10937 l -17.24219,5e-4 c -12.84581,3.7e-4 -17.42673,-0.009 -17.96595,-0.0365 -0.78288,-0.04 -1.78091,-0.007 -2.50449,0.0836 -0.20102,0.0251 -0.36901,0.0457 -0.37331,0.0458 -0.004,1.4e-4 -0.006,-0.92436 -0.003,-2.05443 z"
     id="path840"
     inkscape:connector-curvature="0" />
</svg>
