<svg xmlns="http://www.w3.org/2000/svg" viewBox="0 0 609.64 887.64"><defs><style>.cls-1{fill:#fff;}.cls-2{fill:#999;}</style></defs><g id="Layer_2" data-name="Layer 2"><g id="Layer_1-2" data-name="Layer 1"><path class="cls-1" d="M609.45,363.91a295,295,0,0,1-28.16,125.52,305.66,305.66,0,0,1-63,89.1,301.23,301.23,0,0,1-111.54,69.83c-10.67,3.78-21.65,6.67-32.55,9.78-5,1.42-5.64.81-5.65-4.09,0-19.28.06-38.57-.08-57.85,0-3.69,1.46-5.2,4.84-6.21A239.79,239.79,0,0,0,519.09,466.71c13.4-27.22,21.77-56,23.92-86.33.49-6.78.78-13.57.79-20.37q.08-115.92,0-231.84c0-6.72,0-6.72-6.76-6.72H343.53a15.89,15.89,0,0,0-4.69.35h-1.65V56.36l265.19,0c7.17,0,7.18,0,7.18,7.28C609.56,163.69,609.8,263.8,609.45,363.91Z"/><rect class="cls-2" x="273.94" y="56.31" width="66.24" height="738.6"/><path class="cls-1" d="M0,520.79Q0,444,0,367.17A342.85,342.85,0,0,1,9.72,284a289.61,289.61,0,0,1,28.92-72.25A308.86,308.86,0,0,1,92.4,141.66c14.39-14.11,49.5-38.56,50.78-39,.41,1.41,1.16,52,1.28,75.95,0,3.39-1.55,5.51-3.79,7.62a232.13,232.13,0,0,0-49.23,65.9c-12.29,24.79-20.56,50.81-23.9,78.3a220.93,220.93,0,0,0-1.83,26.2q-.19,130.49-.07,261c0,6.49,0,6.49,6.52,6.5l161.69.1c7.23,0,7.23,0,7.23,7.38q0,26.31,0,52.62c0,5.21-.34,5.53-5.53,5.53H6c-5.77,0-5.93-.16-5.93-6Q0,602.27,0,520.79Z"/><rect class="cls-2" x="303.05" width="8.03" height="887.64"/></g></g></svg>