# This file uses centimeters as units for non-parametric coordinates.

mtllib Spine_Square.mtl
g default
v 0.373200 9.365642 -0.499000
v 0.045252 9.365642 -0.499000
v 0.045252 10.000020 -0.499000
v -0.045213 10.000020 -0.499000
v -0.045213 9.365642 -0.499000
v -0.373161 9.365642 -0.499000
v -0.373161 1.044813 -0.499000
v -0.045213 1.044813 -0.499000
v -0.045213 0.000020 -0.499000
v 0.045252 0.000020 -0.499000
v 0.045252 1.044813 -0.499000
v 0.373200 1.044813 -0.499000
v 0.373200 9.365642 0.501000
v 0.045252 9.365642 0.501000
v 0.045252 10.000020 0.501000
v -0.045213 10.000020 0.501000
v -0.045213 9.365642 0.501000
v -0.373161 9.365642 0.501000
v -0.373161 1.044813 0.501000
v -0.045213 1.044813 0.501000
v -0.045213 0.000020 0.501000
v 0.045252 0.000020 0.501000
v 0.045252 1.044813 0.501000
v 0.373200 1.044813 0.501000
vt 0.531258 0.001992
vt 0.594443 0.001992
vt 0.594443 0.076693
vt 0.531258 0.076693
vt 0.679662 0.076693
vt 0.616477 0.076693
vt 0.616477 0.001992
vt 0.679662 0.001992
vt 0.164993 0.830760
vt 0.164993 0.001992
vt 0.239695 0.001992
vt 0.239695 0.830760
vt 0.328180 0.106055
vt 0.328180 0.001992
vt 0.402882 0.001992
vt 0.402882 0.106055
vt 0.484475 0.001992
vt 0.484475 0.106055
vt 0.409774 0.106055
vt 0.409774 0.001992
vt 0.321288 0.001992
vt 0.321288 0.830760
vt 0.246587 0.830760
vt 0.246587 0.001992
vt 0.524032 0.076693
vt 0.491367 0.076693
vt 0.491367 0.001992
vt 0.524032 0.001992
vt 0.609169 0.076693
vt 0.600159 0.076693
vt 0.600159 0.001992
vt 0.609169 0.001992
vt 0.718043 0.076693
vt 0.685379 0.076693
vt 0.685379 0.001992
vt 0.718043 0.001992
vt 0.725269 0.001992
vt 0.757933 0.001992
vt 0.757933 0.076693
vt 0.725269 0.076693
vt 0.765159 0.001992
vt 0.774169 0.001992
vt 0.774169 0.076693
vt 0.765159 0.076693
vt 0.781478 0.001992
vt 0.814142 0.001992
vt 0.814142 0.076693
vt 0.781478 0.076693
vt 0.075964 0.893945
vt 0.043300 0.893945
vt 0.043300 0.998008
vt 0.034289 0.998008
vt 0.034289 0.893945
vt 0.001625 0.893945
vt 0.001625 0.065177
vt 0.034289 0.065177
vt 0.034289 0.001992
vt 0.043300 0.001992
vt 0.043300 0.065177
vt 0.075964 0.065177
vt 0.157739 0.934823
vt 0.125074 0.934823
vt 0.125074 0.998008
vt 0.116064 0.998008
vt 0.116064 0.934823
vt 0.083400 0.934823
vt 0.083400 0.106055
vt 0.116064 0.106055
vt 0.116064 0.001992
vt 0.125074 0.001992
vt 0.125074 0.106055
vt 0.157739 0.106055
vn 0.000000 0.000000 -1.000000
vn 0.000000 0.000000 -1.000000
vn 0.000000 0.000000 -1.000000
vn 0.000000 0.000000 -1.000000
vn 0.000000 1.000000 0.000000
vn 0.000000 1.000000 0.000000
vn 0.000000 1.000000 0.000000
vn 0.000000 1.000000 0.000000
vn 1.000000 0.000000 0.000000
vn 1.000000 0.000000 0.000000
vn 1.000000 0.000000 0.000000
vn 1.000000 0.000000 0.000000
vn 0.000000 1.000000 0.000000
vn 0.000000 1.000000 0.000000
vn 0.000000 1.000000 0.000000
vn 0.000000 1.000000 0.000000
vn -1.000000 0.000000 0.000000
vn -1.000000 0.000000 0.000000
vn -1.000000 0.000000 0.000000
vn -1.000000 0.000000 0.000000
vn 0.000000 1.000000 0.000000
vn 0.000000 1.000000 0.000000
vn 0.000000 1.000000 0.000000
vn 0.000000 1.000000 0.000000
vn -1.000000 0.000000 0.000000
vn -1.000000 0.000000 0.000000
vn -1.000000 0.000000 0.000000
vn -1.000000 0.000000 0.000000
vn 0.000000 -1.000000 0.000000
vn 0.000000 -1.000000 0.000000
vn 0.000000 -1.000000 0.000000
vn 0.000000 -1.000000 0.000000
vn -1.000000 0.000000 0.000000
vn -1.000000 0.000000 0.000000
vn -1.000000 0.000000 0.000000
vn -1.000000 0.000000 0.000000
vn 0.000000 -1.000000 0.000000
vn 0.000000 -1.000000 0.000000
vn 0.000000 -1.000000 0.000000
vn 0.000000 -1.000000 0.000000
vn 1.000000 0.000000 0.000000
vn 1.000000 0.000000 0.000000
vn 1.000000 0.000000 0.000000
vn 1.000000 0.000000 0.000000
vn 0.000000 -1.000000 0.000000
vn 0.000000 -1.000000 0.000000
vn 0.000000 -1.000000 0.000000
vn 0.000000 -1.000000 0.000000
vn 1.000000 0.000000 0.000000
vn 1.000000 0.000000 0.000000
vn 1.000000 0.000000 0.000000
vn 1.000000 0.000000 0.000000
vn 0.000000 0.000000 1.000000
vn 0.000000 0.000000 1.000000
vn 0.000000 0.000000 1.000000
vn 0.000000 0.000000 1.000000
vn 0.000000 0.000000 -1.000000
vn 0.000000 0.000000 -1.000000
vn 0.000000 0.000000 -1.000000
vn 0.000000 0.000000 -1.000000
vn 0.000000 0.000000 -1.000000
vn 0.000000 0.000000 -1.000000
vn 0.000000 0.000000 1.000000
vn 0.000000 0.000000 1.000000
vn 0.000000 0.000000 1.000000
vn 0.000000 0.000000 1.000000
vn 0.000000 0.000000 1.000000
vn 0.000000 0.000000 1.000000
vn 0.000000 0.000000 1.000000
vn 0.000000 0.000000 1.000000
vn 0.000000 0.000000 -1.000000
vn 0.000000 0.000000 -1.000000
s 1
g spine_square
usemtl svgBlinn1SG
f 2/59/1 5/56/2 4/57/3 3/58/4
s off
f 1/25/5 2/26/6 14/27/7 13/28/8
f 2/1/9 3/2/10 15/3/11 14/4/12
f 3/29/13 4/30/14 16/31/15 15/32/16
f 4/5/17 5/6/18 17/7/19 16/8/20
f 5/33/21 6/34/22 18/35/23 17/36/24
f 6/9/25 7/10/26 19/11/27 18/12/28
f 7/37/29 8/38/30 20/39/31 19/40/32
f 8/13/33 9/14/34 21/15/35 20/16/36
f 9/41/37 10/42/38 22/43/39 21/44/40
f 10/17/41 11/18/42 23/19/43 22/20/44
f 11/45/45 12/46/46 24/47/47 23/48/48
f 12/21/49 1/22/50 13/23/51 24/24/52
s 2
f 17/65/53 14/62/54 15/63/55 16/64/56
s 1
f 12/49/57 11/50/58 8/53/59 7/54/60 6/55/61 5/56/2 2/59/1 1/60/62
s 2
f 13/61/63 14/62/54 17/65/53 18/66/64 19/67/65 20/68/66 23/71/67 24/72/68
f 23/71/67 20/68/66 21/69/69 22/70/70
s 1
f 8/53/59 11/50/58 10/51/71 9/52/72
